<svg xmlns="http://www.w3.org/2000/svg" width="256" height="256"><path fill-opacity=".016" d="M0 128.004v128.004l128.25-.254 128.25-.254.254-127.75L257.008 0H0v128.004m.485.496c0 70.4.119 99.053.265 63.672.146-35.38.146-92.98 0-128C.604 29.153.485 58.1.485 128.5" fill="#1976D2" fill-rule="evenodd"/><path fill-opacity=".438" d="M.014 47.758c.013 43.739.327 50.889 2.109 48.077.602-.949.889-.612.993 1.165.121 2.056.257 1.916.766-.789.625-3.329 2.68-4.145 2.544-1.011-.041.935.297 1.471.75 1.191s.86-1.945.903-3.7l.079-3.191 1.079 2.974c.976 2.689 1.153 2.785 1.851 1 .764-1.955.773-1.955.984.026.116 1.1.534.2.928-2l.716-4 .142 4.309c.081 2.455.553 4.055 1.098 3.718.526-.325.702-1.255.39-2.067-.9-2.347 2.263-6.375 4.539-5.78 1.455.381 2.064-.086 2.397-1.835.396-2.086.461-2.035.582.464.178 3.677 1.735 2.64 2.549-1.697.352-1.876 1.276-3.939 2.053-4.584 1.201-.997 1.259-.618.388 2.538-.795 2.88-.726 3.895.311 4.536.874.54 1.539.242 1.927-.863.463-1.322.826-1.042 1.671 1.287l1.079 2.974.079-2.77c.068-2.39.42-2.707 2.568-2.318 1.605.291 2.807-.118 3.386-1.153 1.371-2.45 8.547-2.501 11.622-.083L53 86.145v-2.513c0-2.877-1.295-4.044-5-4.507-.55-.069-1-.564-1-1.1 0-.598.87-.645 2.25-.12 1.237.47 2.7.908 3.25.972 2.075.242 6.501 4.252 6.515 5.903.013 1.476.153 1.507.985.22.732-1.133.992-.644 1.064 2 .051 1.925.356 2.833.676 2.018.32-.815 1.167-2.068 1.883-2.784 1.069-1.069 1.471-.715 2.249 1.982l.948 3.284.09-3.691c.107-4.405 1.833-5.843 3.856-3.212.926 1.204 1.624 1.479 1.9.749.24-.635 1.556-2.435 2.923-4 1.848-2.116 2.306-2.333 1.782-.846-.387 1.1-1.254 2.817-1.927 3.815-1.497 2.221-.747 5.739 1.075 5.039.805-.309 1.495.402 1.765 1.82l.444 2.326.136-2.25C78.939 90.013 79.45 89 80 89c.55 0 1.036-.787 1.079-1.75.063-1.391.195-1.442.644-.25 2.614 6.946 2.453 6.861 3.818 2 .927-3.303 1.289-3.82 1.361-1.941.054 1.407.73 3.424 1.503 4.481 1.31 1.791 1.381 1.719 1.036-1.059-.203-1.64-.127-2.193.168-1.231.296.963.955 1.75 1.464 1.75.51 0 .927.675.927 1.5s-.562 1.507-1.25 1.515c-.914.012-.882.248.116.881.899.569-.076.885-2.854.923-5.636.078-8.414 2.545-7.498 6.658.37 1.663.816 4.373.991 6.023.72 6.787 11.059 21.217 17.588 24.547 7.139 3.642 10.12 1.865 9.425-5.619-.523-5.62 1.001-12.603 3.081-14.124 2.627-1.921 7.162-1.659 7.712.446.435 1.667.463 1.667.573 0 .143-2.159 4.116-2.4 4.116-.25 0 .825-.562 1.532-1.25 1.57-.687.039-.35.457.75.93 3.016 1.296 3.875 1.157 2.57-.416-.935-1.126-.784-1.54.736-2.023 2.912-.924 5.194.389 5.194 2.987 0 3.033 1.595 3.978 2.908 1.723.629-1.08 1.043-1.26 1.062-.462.016.72.415 1.071.886.78 1.288-.796.048 4.583-1.665 7.222-.825 1.27-4.243 4.378-7.596 6.904-3.352 2.527-6.545 5.131-7.095 5.786-.55.655-2.463 1.947-4.25 2.871-1.787.924-3.306 2.118-3.375 2.654A20.659 20.659 0 0 1 112.5 146c-.138.55-.342 1.787-.454 2.75-.127 1.094-.393 1.282-.708.5-.885-2.192-3.276-1.343-3.967 1.408-.564 2.246-.84 2.421-1.782 1.133-1.181-1.616-2.68-.741-3.859 2.255-.425 1.081-.592.983-.651-.379-.044-1.025-.63-1.632-1.329-1.375-.687.252-1.152.922-1.032 1.488.12.567-.419 1.275-1.199 1.574-.96.369-1.228.052-.832-.98.373-.973.084-1.41-.801-1.207-.762.174-3.861-1.243-6.886-3.148-5.132-3.233-7.001-4.228-14.337-7.635-6.482-3.01-24.163-4.503-24.163-2.04 0 .464 3.218 1.893 7.151 3.175 3.934 1.282 8.884 3.424 11 4.76 2.117 1.336 4.749 2.718 5.849 3.072 1.1.354 3.379 1.939 5.064 3.523 2.651 2.491 2.997 3.401 2.572 6.752l-.492 3.874-.871-4.2c-.689-3.322-1.216-4.067-2.521-3.566-1.051.403-1.215.778-.451 1.033.659.22 1.199.839 1.199 1.375 0 .537-.45.698-1 .358-.55-.34-1 .271-1 1.358 0 1.086-.515 2.147-1.143 2.356-1.839.613.758 4.748 5.994 9.547 4.495 4.119 4.671 4.185 5.299 2 .502-1.746.702-1.862.875-.511.124.963.337 2.2.475 2.75.138.55.327 1.338.42 1.75.094.412.788-.6 1.544-2.25l1.374-3 .212 3 .213 3 .722-3.5.722-3.5.788 3.331c.553 2.341 1.036 2.935 1.623 2 .46-.732.58-2.231.267-3.331-.527-1.849-.45-1.836 1.025.172.877 1.195 2.493 4.268 3.591 6.831 1.098 2.562 3.572 6.58 5.498 8.93 1.926 2.35 3.487 5.127 3.469 6.17-.028 1.712-.152 1.739-1.263.28-1.017-1.336-1.445-1.387-2.468-.292-.68.729-1.237 1.794-1.237 2.367s-.503 1.042-1.118 1.042c-.615 0-2.351 1.411-3.857 3.136-3.262 3.736-4.871 2.401-2.54-2.107.861-1.666 1.153-3.029.648-3.029-.506 0-1.186.696-1.513 1.547-.326.852-1.95 2.021-3.607 2.598-1.657.578-3.013 1.483-3.013 2.012 0 .528.403.712.895.408.493-.305 1.141.085 1.44.866.58 1.511-2.792 1.641-5.127.197-.669-.413-1.208-.247-1.208.372 0 .615-.406.867-.903.56-.496-.307-1.373.792-1.948 2.441-1.356 3.89-2.502 3.858-1.928-.054.33-2.245-.038-3.314-1.386-4.036-1.027-.549-1.886-2.177-1.951-3.696-.089-2.076-.229-2.244-.597-.715-.265 1.1-.862 2.402-1.328 2.894-.471.497-.611-.009-.316-1.137.292-1.117.042-2.334-.556-2.703-.598-.37-1.116-2.108-1.15-3.863-.058-2.915-.142-2.996-.969-.94-.497 1.238-.663 2.88-.368 3.649.295.769.056 1.695-.532 2.058-.589.364-1.068-.065-1.068-.958 0-.89-.43-1.352-.956-1.027-.526.325-.721 1.206-.432 1.958.288.752.014 1.682-.611 2.068-.661.409-1.02.138-.861-.649.151-.742-.092-2.7-.54-4.35l-.815-3-1.028 2.5-1.028 2.5-.765-2.5c-.702-2.296-.779-2.215-.943 1-.099 1.925-.406 2.938-.683 2.25-.278-.688-1.315-1.25-2.305-1.25-1.021 0-2.061-.973-2.403-2.25-.82-3.06-.777-3.959.162-3.378.436.269.866-.486.956-1.679.13-1.717-.032-1.859-.777-.68-.695 1.099-.944.595-.956-1.93-.024-5.348-.962-3.058-1.342 3.277-.189 3.141-.899 6.257-1.579 6.925-.68.668-1.109.765-.953.215.156-.55-.263-1.985-.931-3.189-.88-1.586-.909-2.379-.106-2.875.776-.48.704-.936-.239-1.519-1.074-.664-1.095-1.087-.107-2.075 1.71-1.71 1.558-2.901-.28-2.195-1.097.421-1.446 1.766-1.25 4.813.154 2.395-.293 4.911-1.03 5.801-1.114 1.342-.787 1.982 2.25 4.405C53.401 205.225 55 207.17 55 207.99c0 1.048-.728.751-2.453-1-1.349-1.37-3.037-3.005-3.75-3.635-.713-.63-2.602-2.573-4.196-4.318-2.196-2.404-3.101-2.854-3.735-1.855-.588.928-.84.636-.851-.985-.019-2.969-4.595-9.856-5.328-8.02-.291.727-.565.042-.608-1.523-.043-1.565-.867-4.042-1.829-5.504-4.281-6.503-4.235-6.416-6.414-12.277-1.29-3.47-4.029-3.158-5.51.627-.904 2.311-1.191 2.532-1.25.963-.086-2.308-4.005-3.174-5.28-1.167-.482.758-.771.349-.781-1.105-.009-1.341-.451-2.04-1.055-1.666-.675.417-.812-.266-.392-1.941.406-1.615.233-2.584-.46-2.584-.609 0-1.122 1.012-1.14 2.25-.03 2.102-.12 2.133-1.382.471-1.196-1.578-1.418-1.6-1.956-.198-.351.913-.189 1.323.381.97.544-.336.989.063.989.886 0 1.678-3.981 1.834-4.03.158-.017-.57-.565-.137-1.218.963-1.122 1.889-1.225 1.834-1.852-1-.365-1.65-.717 16.914-.782 41.254L0 252.008l128.25-.254 128.25-.254.261-44.427c.143-24.435.046-44.214-.215-43.952-.262.261-.56 6.207-.663 13.212-.103 7.006-.569 12.973-1.035 13.261-.467.288-.884-.515-.927-1.785-.043-1.27-.307-1.744-.585-1.053-.279.691-.918 1.002-1.421.691-.503-.311-.915 1.074-.915 3.077 0 2.475-.401 3.506-1.25 3.216-1.251-.426-1.364-1.264-1.615-11.99-.074-3.162-.523-5.75-.996-5.75-.474 0-.664 1.238-.422 2.75.344 2.15.207 2.422-.623 1.25-1.44-2.031-1.366-5.307.156-6.947 1-1.077 1-1.205 0-.641-.971.549-1.25-2.096-1.25-11.853 0-10.655.234-12.559 1.544-12.559.849 0 1.471-.563 1.381-1.25-.089-.687-.073-2.6.035-4.25l.198-3 1.004 2.75c1.263 3.458 2.838 3.564 2.838.191 0-1.451.433-2.292 1-1.941.55.34 1.045-.196 1.1-1.191.068-1.235.326-1.016.814.691.857 2.997 2.082-58.424 2.085-104.5l.001-33-128.5.258L0 3.015l.014 44.743m.447.742c0 25.3.13 35.507.288 22.681.159-12.825.158-33.525 0-46C.59 12.707.461 23.2.461 48.5m33.998 18.567c-.363.586-.445 1.281-.183 1.543s.743-.218 1.069-1.067c.676-1.762.1-2.072-.886-.476m-4.145 7.683c-.342.963-.848 2.157-1.123 2.655-.275.497-.035.617.534.265 1.042-.644 2.464-4.67 1.65-4.67-.241 0-.718.787-1.061 1.75M40.5 78c-.34.55-.141 1 .441 1S42 78.55 42 78s-.198-1-.441-1-.719.45-1.059 1m13.532 6.309c-.018 1.545.384 2.552.892 2.238.509-.314 1.131.222 1.384 1.191.381 1.459.48 1.408.576-.297.064-1.132-.545-2.932-1.352-4-1.404-1.856-1.47-1.818-1.5.868M42 86.941c0 1.682.173 3.059.383 3.059.849 0 1.288-5.085.483-5.583-.476-.294-.866.842-.866 2.524m3.622-.191c.941 3.926 1.378 4.058 1.378.417C47 85.425 46.541 84 45.981 84c-.605 0-.751 1.117-.359 2.75m-27.543 2.833c.048 1.165.285 1.402.604.605.289-.722.253-1.585-.079-1.917-.332-.332-.568.258-.525 1.312m54 0c.048 1.165.285 1.402.604.605.289-.722.253-1.585-.079-1.917-.332-.332-.568.258-.525 1.312m21.037 4.167c-.095 1.844.409 2.25 2.79 2.25 2.481 0 2.825-.315 2.345-2.148-.507-1.94-.678-1.988-1.767-.5-1.539 2.106-2.224 2.081-2.795-.102-.344-1.317-.486-1.193-.573.5M100 96c0 .55.477 1 1.059 1s.781-.45.441-1-.816-1-1.059-1-.441.45-.441 1m6 1c0 .55.45 1 1 1s1-.45 1-1-.45-1-1-1-1 .45-1 1m124.471 42.288c-.566.667-.872 1.991-.68 2.943.192.953-.358 2.74-1.221 3.973-.864 1.233-1.57 1.781-1.57 1.219 0-.563.521-1.544 1.158-2.181.876-.876.834-1.547-.175-2.763-1.222-1.472-1.409-1.469-2.254.04-.506.905-.632 3.184-.28 5.063.353 1.88.234 3.418-.265 3.418s-.692 1.125-.429 2.5c.568 2.969.962 3.051 3.573.75 1.91-1.683 1.966-1.67 1.466.333-.329 1.321-.037 2.084.799 2.084.726 0 1.044-.445.709-.988-.342-.553-.102-.674.543-.274.635.392 1.155 1.676 1.155 2.854 0 3.597 1.984.532 2.477-3.825.244-2.164.681-5.598.971-7.633.29-2.034.082-3.973-.461-4.309-.543-.335-.994-1.596-1.002-2.801-.013-1.781-.197-1.91-.985-.691-.646 1-.974 1.083-.985.25-.019-1.567-1.197-1.549-2.544.038m8.708 5.712c-1.385 7.057-4.68 19.003-6.344 23-1.206 2.897-2.201 7.7-1.438 6.936 1.475-1.474 7.624-19.393 8.622-25.121 1.558-8.95.812-13.231-.84-4.815m10.9-3.417c.048 1.165.285 1.402.604.605.289-.722.253-1.585-.079-1.917-.332-.332-.568.258-.525 1.312M242 152.833c0 3.104.441 5.167 1.104 5.167.729 0 .912-1.576.538-4.629-.788-6.437-1.642-6.717-1.642-.538m-8.921-1.25c.048 1.165.285 1.402.604.605.289-.722.253-1.585-.079-1.917-.332-.332-.568.258-.525 1.312M246 153c0 .55.45 1 1 1s1-.45 1-1-.45-1-1-1-1 .45-1 1m-16.397 5.833c-.283.459.12.834.897.834s1.18-.375.897-.834c-.283-.458-.687-.833-.897-.833-.21 0-.614.375-.897.833M73.195 161.5c.02 1.65.244 2.204.498 1.231.254-.973.237-2.323-.037-3-.274-.677-.481.119-.461 1.769m168.82.25c.012 2.143.23 2.419.985 1.25 1.264-1.957 1.264-4 0-4-.55 0-.993 1.238-.985 2.75m4.064-.167c.048 1.165.285 1.402.604.605.289-.722.253-1.585-.079-1.917-.332-.332-.568.258-.525 1.312M21 162.559c0 .857.45 1.281 1 .941.55-.34 1-1.041 1-1.559s-.45-.941-1-.941-1 .702-1 1.559M231.158 164c0 1.375.227 1.938.504 1.25.278-.687.278-1.812 0-2.5-.277-.687-.504-.125-.504 1.25m-167.673.457-.954 3.043c-.712 2.281-3.874 1.919-3.274-.375.378-1.444-.055-1.875-1.883-1.875-1.728 0-2.397.579-2.457 2.125-.27 6.885-1.845 10.432-2.017 4.542-.055-1.88-.46-4.542-.9-5.917-.753-2.35-.807-2.302-.9.809-.055 1.82-.519 3.05-1.032 2.733-.513-.317-1.12.669-1.35 2.191-.27 1.788-.513.999-.686-2.233-.237-4.404-.354-4.643-.988-2l-.72 3-.794-2.845c-.582-2.085-1.022-2.486-1.647-1.5-1.219 1.923-1.079 3.084.272 2.25.721-.446.882-.274.43.457-.398.644-1.108.933-1.578.642-.471-.291-1.099.265-1.395 1.234-.297.969-.399.554-.227-.923.172-1.477-.062-3.277-.521-4-.513-.81-.839.51-.849 3.435-.008 2.613-.352 4.75-.765 4.75-.413 0-.715-1.8-.672-4 .043-2.2-.279-4-.715-4-1.134 0-2.876 3.544-2.793 5.684.064 1.636.162 1.618.992-.184.863-1.874.906-1.879.68-.083-.338 2.677-2.742 3.261-2.742.666 0-1.145-.9-2.983-2-4.083-1.556-1.556-2-1.667-2-.5 0 .825-.411 1.5-.913 1.5s-.404 1.35.219 3 1.484 3 1.913 3c.43 0 .781 1.167.781 2.594 0 1.752.649 2.763 2 3.116 1.1.288 2 1.339 2 2.335 0 .997.568 2.407 1.263 3.134.695.726 2.118 2.654 3.162 4.284 1.759 2.743 1.956 2.817 2.667 1 .756-1.935.77-1.934.956.037.104 1.1.133 2.49.064 3.089-.069.599.777 1.906 1.881 2.905 1.965 1.778 2.009 1.755 2.108-1.089.056-1.598.016-4.431-.088-6.296-.151-2.683.13-3.268 1.347-2.801 1.058.406 1.364.137.982-.859-.348-.908.066-1.449 1.11-1.449.916 0 1.407-.419 1.091-.931-.317-.512-.118-1.213.441-1.559.559-.345 1.016-1.528 1.016-2.628 0-1.33.413-1.745 1.232-1.238 2.213 1.367 4.768 1.067 4.783-.561.013-1.346.153-1.366.932-.135.734 1.161 1.157.919 2.132-1.221.781-1.716 1.874-2.569 3.057-2.388 2.28.347 6.829 4.205 6.964 5.904.055.692.46.132.9-1.243l.801-2.5.099 2.45c.142 3.483 2.233 1.159 2.72-3.022.386-3.314-1.155-6.334-2.733-5.358-.488.301-.887-.33-.887-1.404 0-1.074-.675-2.211-1.5-2.528-.825-.316-1.544-1.377-1.598-2.357-.054-.979-.685.244-1.402 2.719-1.234 4.26-1.309 4.329-1.402 1.285-.112-3.666-3.722-6.662-4.613-3.828M.46 208c0 24.475.13 34.488.289 22.25.159-12.237.159-32.262 0-44.5C.59 173.513.46 183.525.46 208m64.104-42.707c.376.986.935 1.541 1.243 1.233.308-.307.001-1.114-.683-1.793-.988-.98-1.102-.865-.56.56m13.515.29c.048 1.165.285 1.402.604.605.289-.722.253-1.585-.079-1.917-.332-.332-.568.258-.525 1.312m-29 1c.048 1.165.285 1.402.604.605.289-.722.253-1.585-.079-1.917-.332-.332-.568.258-.525 1.312m196.936-.392c.009.72.452 1.984.985 2.809.788 1.219.972 1.09.985-.691.008-1.205-.435-2.469-.985-2.809-.55-.34-.993-.029-.985.691m-134.467 1.546c-.375.975-.154 1.894.508 2.115.876.292.865.579-.046 1.142-.893.552-.932 1.251-.147 2.629 2.645 4.641 2.891 4.826 4.561 3.44 1.328-1.102 1.576-1.044 1.576.374 0 .924-.45 1.403-1 1.063-2.145-1.326-.846 1.274 2 4l3 2.874v-5.187c0-2.853-.45-5.187-1-5.187s-1-.525-1-1.167c0-.641.296-.87.658-.508.362.362 1.337.099 2.166-.584 1.302-1.072 1.422-.831.882 1.759-.345 1.65-.382 2.438-.083 1.75.299-.687 1.181-1.25 1.96-1.25 1.077 0 1.379 1.382 1.26 5.75l-.157 5.75-.593-5c-.442-3.725-.84-4.617-1.562-3.5-1.142 1.767-.768 5.974.689 7.75 1.195 1.457 4.78 1.689 4.78.309 0-.518-.466-1.229-1.036-1.581-.569-.352-1.016-2.291-.993-4.309.071-6.15-.209-6.961-2.888-8.338-1.421-.73-2.914-1.779-3.318-2.329-.437-.596-.741-.418-.75.439-.011 1.028-.426.885-1.448-.5-1.22-1.653-1.628-1.734-2.75-.544-.94.997-.959 1.195-.067.691.858-.485 1.25.096 1.25 1.853 0 1.608-.557 2.559-1.5 2.559-.825 0-1.5.477-1.5 1.059s-.477.764-1.06.404c-.673-.416-.399-1.195.75-2.133.996-.813 1.248-1.193.56-.845-1.169.592-1.718-1.11-1.342-4.16.242-1.961-1.653-2.433-2.36-.588M242 169.441c0 1.407.354 2.559.787 2.559 1.135 0 1.262-3.852.149-4.539-.515-.319-.936.573-.936 1.98m-184.921.142c.048 1.165.285 1.402.604.605.289-.722.253-1.585-.079-1.917-.332-.332-.568.258-.525 1.312m4.652 3.497c.354 1.352.807 1.806 1.057 1.057.24-.722-.038-1.787-.62-2.369-.742-.742-.872-.351-.437 1.312m17.084 1.603c-.212.45-.1 2.842.249 5.317.669 4.739 1.283 4.506.955-.363-.146-2.153.138-2.663 1.144-2.058.985.593.951.294-.13-1.137-.807-1.068-1.549-2.084-1.65-2.259-.1-.174-.356.051-.568.5m162.94 1.817c-.263 1.375-.09 2.5.384 2.5.473 0 .861-1.125.861-2.5s-.173-2.5-.383-2.5c-.211 0-.599 1.125-.862 2.5m-176.129 2.031c-.74 1.929.607 2.548 2.079.954.946-1.023.91-1.419-.167-1.832-.755-.29-1.615.105-1.912.878M48 182.5c0 1.925.176 3.5.391 3.5.214 0 .574-1.575.799-3.5.225-1.925.049-3.5-.391-3.5-.439 0-.799 1.575-.799 3.5m205.195 0c.02 1.65.244 2.204.498 1.231.254-.973.237-2.323-.037-3-.274-.677-.481.119-.461 1.769M55 182.5c0 .825.45 1.5 1 1.5s1-.675 1-1.5-.45-1.5-1-1.5-1 .675-1 1.5m8.374-.033c-.309.807-.37 2.044-.134 2.75s.666.045.956-1.467c.566-2.953.099-3.682-.822-1.283m-4.8 2.83c-.448 1.538-.535 3.075-.194 3.416 1.119 1.12 1.778-.478 1.39-3.372l-.381-2.841-.815 2.797m7.441-1.547c.009.412.452 1.425.985 2.25.784 1.213.972 1.069.985-.75.008-1.238-.435-2.25-.985-2.25s-.993.338-.985.75m17.064 1.833c.048 1.165.285 1.402.604.605.289-.722.253-1.585-.079-1.917-.332-.332-.568.258-.525 1.312m-10 3c.048 1.165.285 1.402.604.605.289-.722.253-1.585-.079-1.917-.332-.332-.568.258-.525 1.312m-38.515 3.71c.376.986.935 1.541 1.243 1.233.308-.307.001-1.114-.683-1.793-.988-.98-1.102-.865-.56.56m45.895 2.774c-.363.586-.445 1.281-.183 1.543s.743-.218 1.069-1.067c.676-1.762.1-2.072-.886-.476m3.291.595c.688.278 1.25.965 1.25 1.528 0 .563-.675.765-1.5.448-.905-.347-1.5-.005-1.5.862s-.595 1.209-1.5.862c-1.032-.397-1.5.062-1.5 1.472 0 2.655 1.712 3.715 2.308 1.428.424-1.624.469-1.618.576.071.064 1.009.679 1.642 1.366 1.407.688-.234 1.142-1.509 1.009-2.833l-.241-2.407.983 2.314c1.469 3.461 3.03 1.781 1.925-2.071-.509-1.776-.926-3.345-.926-3.486 0-.142-.787-.221-1.75-.178-1.045.047-1.247.282-.5.583m8.595.881c-.93 2.424.368 2.862 1.609.543.774-1.447.789-2.086.05-2.086-.587 0-1.333.694-1.659 1.543m161.734.04c.048 1.165.285 1.402.604.605.289-.722.253-1.585-.079-1.917-.332-.332-.568.258-.525 1.312m-142 4c.048 1.165.285 1.402.604.605.289-.722.253-1.585-.079-1.917-.332-.332-.568.258-.525 1.312m-6 1c.048 1.165.285 1.402.604.605.289-.722.253-1.585-.079-1.917-.332-.332-.568.258-.525 1.312m13.037 5.198c.083 1.947.254 2.181.601.824.39-1.523.659-1.621 1.369-.5.719 1.136.886 1.09.899-.248.008-.904-.66-1.902-1.485-2.219-1.121-.43-1.471.112-1.384 2.143" fill="#1976D2" fill-rule="evenodd"/><path fill-opacity=".135" d="M.061 28.45C.173 46.431.555 54.045 1.36 54.377c.842.348.846.687.016 1.297-.718.528-.82 1.638-.282 3.076 1.258 3.363 3.085 2.729 2.881-1-.098-1.788-.079-5.725.042-8.75.177-4.441.347-4.922.879-2.5.493 2.247 1.204 2.981 2.832 2.926 1.195-.041 1.937.308 1.648.774-.978 1.583.764 6.8 2.271 6.8 1.062 0 1.295-.608.813-2.125-.454-1.43-.312-1.902.433-1.441.609.376 1.163 1.67 1.232 2.875.069 1.205.485.166.924-2.309.439-2.475.558-5.962.264-7.75-.514-3.122.808-4.482 2.187-2.25.34.55.115 1-.5 1s-.835.457-.49 1.016c1.028 1.664 2.484.063 2.569-2.825.043-1.48.304-2.016.579-1.191 1.425 4.272 1.673 4.428 2.381 1.5.668-2.767.744-2.651.977 1.5.139 2.475.223 6.525.188 9-.055 3.789.195 3.235 1.583-3.5 1.465-7.114 1.706-7.613 2.18-4.5.293 1.925 1.068 3.603 1.722 3.73 1.569.303 2.949-4.017 1.444-4.519-.623-.208-1.081-1.353-1.017-2.544.096-1.799.196-1.857.587-.344.278 1.073 1.054 1.601 1.884 1.282.9-.345 1.413.122 1.413 1.289 0 1.36.644 1.76 2.5 1.557 2.371-.261 3.211 1.317 2.594 4.873-.079.454.318.54.881.191.564-.348 1.032.181 1.04 1.176.013 1.534.163 1.581.985.309.798-1.235.972-1.25.985-.083.027 2.518 1.462.054 1.587-2.726.311-6.927.463-7.684 1.28-6.396.452.712.742 2.62.646 4.24l-.175 2.946 4.088-3.948c7.86-7.589 13.787-11.992 23.636-17.56 9.191-5.195 8.296-3.569-1.277 2.32-4.549 2.799-11.149 7.721-14.668 10.939-5.289 4.837-6.463 6.494-6.778 9.56-.217 2.119.06 3.708.648 3.708.565 0 1.084-1.125 1.153-2.5.191-3.814.304-4.268 1.285-5.167.529-.483.611-.312.196.41-.547.95.632 1.128 5.022.754C65.073 48.948 69 50.662 69 54.023 69 55.11 69.525 56 70.167 56c.641 0 .87.296.508.658-.362.362-.161 1.256.446 1.987.606.731.847 1.996.535 2.81-.313.815-.135 1.749.395 2.076 1.534.948 2.381-2.61 1.107-4.65-1.823-2.919-1.428-3.408 2.842-3.52 4.08-.107 4.798.441 2.973 2.266-.702.702.051 3.167 2.383 7.801 1.876 3.726 3.629 6.166 3.896 5.423.322-.897.885-.504 1.672 1.167.652 1.385 2.849 3.62 4.881 4.967 2.032 1.347 5.13 3.663 6.885 5.148 1.884 1.595 5.459 3.171 8.732 3.851 3.049.633 5.803 1.57 6.12 2.083.317.513 1.674.933 3.017.933s2.441.436 2.441.969c0 .532.632.726 1.405.429.962-.369 1.64.508 2.15 2.781.41 1.827.941 2.756 1.18 2.065.24-.691.847-1.002 1.35-.691.503.311.944-.249.978-1.244.05-1.423.262-1.316.992.505.51 1.273 1.335 2.063 1.832 1.756.971-.6 2.414 1.977 2.481 4.43.023.825-.609 1.352-1.403 1.17-.794-.181-4.148-.313-7.454-.293-3.306.02-10.286-.854-15.511-1.943-10.913-2.274-22.28-2.777-24.328-1.077-1.864 1.547-1.111 8.099 1.12 9.744 1.457 1.074 1.788.94 2.251-.911.825-3.299 1.716-.733 1.41 4.063-.15 2.364.133 4.003.638 3.691.5-.309.938-1.548.972-2.753.063-2.157.078-2.155 1.002.151.517 1.289.76 2.639.542 3-.218.362.231 1.238.998 1.947 1.171 1.083 1.417.761 1.531-2 .102-2.449.249-2.7.577-.981.357 1.868.713 2.083 1.864 1.128.783-.65 1.423-2.326 1.423-3.725 0-3.015 1.262-2.186 1.496.982.217 2.943 2.504 3.604 2.504.724 0-1.238.299-1.952.664-1.586.365.365.651 2.577.635 4.916-.016 2.339.167 3.234.407 1.988.241-1.245.855-2.006 1.365-1.691.897.554 1.338-1.437 1.006-4.544-.143-1.333-.045-1.333.881 0s1.16 1.333 2.108 0c.839-1.182.93-1.022.43.757l-.635 2.258 3.456-2.039c2.975-1.756 4.479-1.95 10.819-1.396 4.222.369 9.284 1.556 11.864 2.782 4.032 1.916 4.466 2.45 4.175 5.138-.472 4.354-3.703 9.037-8.721 12.64-2.415 1.735-4.11 3.607-3.768 4.161.352.57.124.7-.523.3-.63-.39-2.21.328-3.511 1.595-1.301 1.267-3.667 3.061-5.258 3.986-2.95 1.715-4.057 4.477-4.276 10.668-.09 2.567.677 4.145 3.282 6.75 3.098 3.098 3.924 3.4 9.3 3.4 3.306 0 6.516-.55 7.302-1.25 1.178-1.051 1.207-.99.178.379-1.039 1.383-.848 1.701 1.268 2.106 1.37.262 2.254.091 1.963-.379-.793-1.283.852-.972 2.839.536.963.731 1.75 2.014 1.75 2.852 0 .837.9 1.758 2 2.046 1.356.354 2 .03 2-1.006 0-1.246.278-1.298 1.5-.284.825.685 1.5 2.081 1.5 3.103 0 1.117.938 2.094 2.348 2.448 1.905.478 2.259 1.095 1.875 3.269-.549 3.111-4.541 7.741-8.423 9.769-3.408 1.781-13.101 1.798-18.17.034-4.013-1.398-8.462-6.142-17.957-19.151-5.005-6.858-20.434-19.972-23.498-19.972-.921 0-2.223-.675-2.893-1.5-1.053-1.296-1.225-1.228-1.266.5-.039 1.66-.211 1.745-1.016.5-.862-1.333-.973-1.333-1 0-.027 1.333-.139 1.333-1.005 0-.759-1.168-.933-.94-.785 1.031.119 1.591 1.583 3.633 3.944 5.5 2.064 1.633 3.774 3.375 3.8 3.87.025.496 2.45 3.268 5.389 6.16 5.688 5.598 11.904 14.316 13.147 18.439 1.276 4.235 11.533 16.827 16.253 19.953 4.302 2.85 7.501 4.143 13.598 5.499 2.024.45 2.671 1.074 2.25 2.172-.325.847-.591 2.23-.591 3.074 0 1.093-.711 1.399-2.47 1.063-1.358-.26-2.257-.129-1.998.291.26.42.05 1.817-.467 3.106-.84 2.097-.945 1.95-1.002-1.408-.034-2.062-.513-3.75-1.063-3.75-.55 0-1.007.563-1.015 1.25-.011.833-.339.75-.985-.25-.728-1.126-1.004-.566-1.11 2.25-.077 2.063-.252 4.2-.39 4.75-.138.55-.313 2.238-.39 3.75-.111 2.163-.348 2.43-1.11 1.25-.828-1.282-.972-1.246-.985.25-.008.963.435 1.75.985 1.75s1 .439 1 .975c0 .627-.893.636-2.5.025-1.819-.692-2.517-.617-2.563.275-.12 2.317-2.212-3.778-2.413-7.03-.277-4.486-1.497-5.349-1.642-1.162-.066 1.88-.066 3.755 0 4.167.065.412-.332.75-.882.75s-1.032-.562-1.07-1.25c-.039-.687-.422-.35-.851.75-.842 2.158-3.125 2.705-4.314 1.033-.473-.665-.74-.587-.75.217-.008.688-.465 1.25-1.015 1.25-.55 0-1-.927-1-2.059 0-1.256-.434-1.791-1.112-1.372-.611.378-1.504.067-1.984-.691-.57-.9-.879.25-.889 3.313-.008 2.58.483 4.999 1.092 5.375.764.472.93-.361.536-2.691l-.57-3.375 1.072 3.124c.813 2.37 1.979 3.396 4.83 4.25 5.036 1.509 5.008 1.518 5.143-1.624l.119-2.75.637 3c.602 2.831.976 3.036 6.632 3.641 16.225 1.737 32.805.303 46.451-4.016 3.551-1.124 6.635-1.866 6.853-1.648.733.732-16.239 5.448-23.743 6.596-14.382 2.201-33.705 1.515-45.995-1.633-6.059-1.552-8.705-1.273-7.434.784.414.669.202.795-.552.329-.672-.415-.995-1.348-.717-2.071.277-.724-.076-1.539-.785-1.811-.871-.335-1.204.288-1.025 1.917.198 1.801-.22 2.412-1.647 2.412-1.052 0-1.942.563-1.98 1.25-.037.688-.556.238-1.152-1-1.126-2.333-2.78-3.042-2.78-1.191 0 .582-.45.781-1 .441s-1.016-.029-1.035.691c-.02.72-.679.184-1.465-1.191-1.406-2.46-1.432-2.428-1.622 2l-.192 4.5-.686-5c-.679-4.949-.688-4.959-.858-1-.116 2.679-.458 3.55-1.036 2.637-.729-1.151-.948-1.151-1.406 0-.298.75-.645-1.337-.771-4.637s-.393-4.65-.593-3c-.956 7.876-1.443 9.295-3.361 9.796-1.598.418-1.978.01-1.99-2.14-.009-1.461-.452-3.331-.985-4.156-.682-1.055-.974.405-.985 4.917-.008 3.529-.211 6.221-.45 5.982-.595-.595-1.359-5.569-1.599-10.399-.109-2.2-.405-3.207-.658-2.238-.253.969-.8 1.552-1.217 1.294-.417-.257-.758.167-.758.944 0 .777.375 1.18.834.897.458-.283.833.187.833 1.044S62.523 238 61.941 238s-.864.337-.625.75c.238.412.071 1.65-.372 2.75-.583 1.446-.78.822-.711-2.253.052-2.339-.204-4.551-.569-4.916-.365-.366-.664 2.186-.664 5.669 0 3.483-.271 6.062-.603 5.731-.649-.649-1.133-6.684-1.295-16.148-.157-9.104-1.133-5.998-1.521 4.836-.346 9.656-1.492 14.426-1.681 6.998-.087-3.435-.198-3.61-.9-1.417-.644 2.012-.826 1.525-.931-2.5-.102-3.926-.35-4.623-1.154-3.242-.563.967-.747 2.204-.41 2.75.337.546.046.992-.646.992-.979 0-.992.267-.059 1.2.66.66 1.2 1.592 1.2 2.071 0 .48-.675.197-1.5-.628-.934-.934-1.57-3.695-1.686-7.322-.166-5.173-.256-4.875-.814 2.679-.563 7.632-.646 7.9-.814 2.628-.17-5.38-.328-5.758-1.878-4.5-.964.781-1.387.864-.984.191.39-.649.251-1.463-.308-1.809-.62-.383-1.016.844-1.016 3.145 0 3.314-.178 3.595-1.465 2.308-.806-.805-1.574-2.896-1.708-4.645-.133-1.749-.641-2.933-1.129-2.632-.487.302-.699 1.531-.469 2.732.298 1.56-.097 2.222-1.385 2.319-.991.074-1.758-.173-1.704-.551.278-1.964-.253-3.234-1.127-2.694-.542.335-.739 2.162-.438 4.059.336 2.11.136 3.449-.513 3.449-.589 0-1.151-2.339-1.263-5.25-.638-16.686-.645-16.75-1.818-16.75-.58 0-.756 1.047-.41 2.428.335 1.335.133 3.247-.45 4.25-.849 1.459-1.066.817-1.091-3.228-.027-4.523-1.24-7.45-3.087-7.45-.895 0-.628 10.215.304 11.65 1.016 1.563.548 6.342-.553 5.661-.485-.3-.68-1.602-.434-2.893.247-1.292-.012-2.502-.577-2.69-.564-.188-.951-2.254-.859-4.591.095-2.448-.234-4.002-.778-3.666-.519.321-.845 3.234-.725 6.473s-.128 5.675-.551 5.414c-.424-.262-.815-3.037-.87-6.167-.055-3.13-.495-6.816-.978-8.191-.7-1.991-.788-1.686-.433 1.5.245 2.2.198 3.438-.105 2.75-1.069-2.428-1.883-1.202-1.806 2.72.042 2.183-.288 4.546-.735 5.25-.906 1.427-.924 1.389-1.207-2.47-.111-1.512.15-2.75.581-2.75.431 0 .783-.702.783-1.559 0-.981-.463-1.281-1.25-.808-.98.589-.992.432-.057-.725.772-.955.866-1.992.265-2.942-.51-.806-1.002-3.491-1.093-5.966-.129-3.542-.264-3.861-.633-1.5-.414 2.647-.564 2.765-1.28 1-.667-1.643-.824-1.421-.882 1.25-.038 1.787.407 3.25.989 3.25.585 0 .718.552.297 1.232-1.067 1.728-1.188 4.768-.189 4.768.458 0 .833.436.833.969 0 .532-.675.709-1.5.393-1.17-.449-1.5-2.438-1.5-9.028 0-4.649-.392-8.21-.871-7.914-.479.296-.887 3.506-.908 7.134-.02 3.627-.303 6.862-.629 7.187-.326.326-.592-1.305-.592-3.624 0-4.27-2.965-11.677-3.747-9.361-.233.691-.794 1.028-1.246.749-.452-.28-.872 9.841-.933 22.49l-.112 22.998 113.604-.01c127.304-.012 116.972.639 116.608-7.343-.24-5.259 1.178-10.226 2.812-9.849.849.196 1.017-.293.518-1.5-.408-.985-.764-2.334-.79-2.997-.026-.663-.38-1-.787-.749-.406.251-.486 1.427-.176 2.612.335 1.281.166 1.91-.418 1.549-.829-.512-.863-3.272-.128-10.456.071-.687.466-1.25.878-1.25.413 0 1 .563 1.305 1.25.372.839.524.757.464-.25-.201-3.374.207-5 1.255-5 .609 0 .848.675.531 1.5-.341.888-.01 1.5.81 1.5.762 0 1.612.563 1.89 1.25.301.747.536.545.583-.5.043-.963-.371-1.75-.921-1.75s-1-.9-1-2 .454-2 1.008-2c.609 0 .53-.767-.2-1.935-.664-1.065-1.568-1.713-2.008-1.441-.44.272-.8-.234-.8-1.124 0-.89.445-1.343.989-1.007.588.363.72-.088.326-1.115-.486-1.267-.262-1.572.845-1.147.829.318 1.507.043 1.507-.612s-.792-1.19-1.76-1.19-1.571.306-1.339.681c.231.374-.162.904-.874 1.177-.979.376-1.23-.817-1.03-4.895.145-2.975-.168-5.392-.7-5.392-.53 0-.964.354-.964.786 0 .432-.898.785-1.995.785s-1.943-.466-1.881-1.035c.35-3.204-.236-5.585-1.224-4.974-.797.493-.797.113.003-1.381.774-1.447.786-2.255.04-2.716-.679-.42-.447-1.108.644-1.905 1.555-1.137 1.518-1.234-.413-1.091-1.258.092-3.411 1.96-5.295 4.593-3.828 5.352-18.013 19.542-22.879 22.889-1.925 1.324.467-1.341 5.316-5.923 8.147-7.7 13.823-14.683 19.404-23.873 1.939-3.193 2.479-8.573 1.219-12.155-.097-.275-.092-.929.011-1.454.465-2.384-2.437-13.546-3.522-13.546-.663 0-1.143-.697-1.067-1.548.086-.957-1.719-2.362-4.718-3.674-3.908-1.71-5.224-1.896-6.736-.952-3.011 1.881-3.414 1.448-3.285-3.533.144-5.583 1.648-6.491 4.578-2.766 2.655 3.375 8.611 6.062 10.112 4.561 1.47-1.47 1.83-7.883.489-8.711-.672-.415-.828-.23-.396.468.392.635.199 1.155-.429 1.155-.629 0-.981-.484-.784-1.075.197-.591.615-.929.929-.75 1.258.715 3.535-2.283 3.35-4.41-.108-1.246.183-3.008.648-3.915.584-1.142.363-1.835-.719-2.25-2.465-.946-5.898-.702-7.104.504-.805.805-1.574.113-2.841-2.559-2.264-4.77-.672-6.99 2.782-3.881 4.793 4.316 7.948 3.368 7.357-2.21-.281-2.655-.747-3.013-4.607-3.542-2.362-.323-5.969-.281-8.016.093-3.411.624-3.721.49-3.721-1.612 0-1.967.39-2.215 2.744-1.744 2.039.408 3.325-.055 5.005-1.8l2.261-2.349-.685 2.893-.685 2.894 4.695-.644c2.582-.353 5.306-.643 6.055-.643.748 0 1.396-.787 1.439-1.75.047-1.045.282-1.247.583-.5.278.687.903 1.25 1.39 1.25.487 0 .598-.749.247-1.664-.422-1.099-.252-1.425.502-.959.7.432 1.387-.277 1.778-1.836.351-1.398 1.066-2.541 1.588-2.541.523 0 .692-.419.376-.931-.317-.512-.131-1.205.411-1.541 1.012-.625 1.769 1.674 2.296 6.972l.298 3 .529-3.088c.621-3.625-1.698-18.433-3.107-19.842-.533-.533-.97-1.809-.97-2.836 0-4.476-7.579-18.209-17.463-31.643-.571-.775-4.58-4.915-8.91-9.199-15.689-15.525-34.313-25.519-55.833-29.961-8.731-1.802-12.8-2.064-26.794-1.725-10.93.266-14.981.111-12-.459 8.056-1.538 37.53-.178 46.251 2.135 12.777 3.388 27.573 10.015 34.249 15.339.55.438 3.458 2.705 6.461 5.038 7.319 5.683 11.668 10.058 17.14 17.241 10.262 13.47 15.305 22.862 20.406 38 1.854 5.5 3.398 9.213 3.431 8.25.034-.963.798-1.75 1.697-1.75 2.079 0 7.078-5.262 5.499-5.789-.63-.21-.904-.774-.608-1.253.296-.479 1.199-.617 2.006-.307.807.309 1.468.01 1.468-.666 0-.918.417-.884 1.644.135 1.462 1.213 1.565 1.115.933-.878-.741-2.334.856-3.234 1.761-.992.277.688.545-2.35.596-6.75.05-4.4.383-24.609.739-44.908.463-26.365.339-36.717-.434-36.239-.595.367-58.515.662-128.71.655L-.098 2.994.061 28.45m.37-1.95c.001 13.2.143 18.462.316 11.693.174-6.769.173-17.569-.001-24C.572 7.762.431 13.3.431 26.5M102 18c-1.98.634-2.084.801-.5.801 1.1 0 3.125-.361 4.5-.801 1.98-.634 2.084-.801.5-.801-1.1 0-3.125.361-4.5.801m-7 1.658c-.825.275-2.127.7-2.893.945-.766.244-1.177.66-.913.925.264.264 2.241-.165 4.393-.954 3.534-1.294 3.008-2.115-.587-.916M84 24c-4.588 2.512-3.374 2.524 2.141.022 2.397-1.088 3.684-1.969 2.859-1.958-.825.011-3.075.882-5 1.936m41.004 3.196c.548.662.996 2.464.996 4.004 0 1.54.42 2.8.934 2.8 1.365 0 .202-5.286-1.485-6.754-.943-.819-1.097-.837-.445-.05M137.2 28.2c-.66.66-1.133 2.797-1.05 4.75.122 2.906.224 3.064.559.873.225-1.472 1.058-3.215 1.85-3.872 1.565-1.299 1.924-2.951.641-2.951-.44 0-1.34.54-2 1.2m30.304 2.328c-.332 1.085-1.481 3.636-2.554 5.67-1.958 3.714-2.397 6.474-1.43 8.995.8 2.083 8.272 1.065 9.537-1.3.83-1.551.667-1.893-.899-1.893-1.052 0-2.473.675-3.158 1.5-1.639 1.975-4 1.919-4-.096 0-.877.836-2.79 1.858-4.25 2.199-3.142 3.158-7.509 2.045-9.311-.589-.953-.952-.776-1.399.685m-77.82 1.256c.652.414 1.415 2.66 1.696 4.991.627 5.204 1.217 6.225 3.597 6.225C98.19 43 100 41.856 100 39.827c0-1.077.515-2.92 1.143-4.095 1.117-2.086.943-2.38-1.803-3.057-.391-.096-.74 1.625-.775 3.825-.058 3.583-.326 4-2.565 4-2.127 0-2.55-.522-2.832-3.496-.354-3.73-1.704-6.014-3.54-5.989-.789.011-.772.242.056.769m13.718 7.053c-.054 1.558-1.177 4.292-2.494 6.074-2.011 2.719-2.86 3.149-5.274 2.666-2.39-.478-2.68-.338-1.713.828.641.772.884 2.522.541 3.89-.743 2.961.804 4.294 2.547 2.194.68-.819 1.743-1.492 2.363-1.495.621-.004 1.895-1.354 2.831-3 1.022-1.795 2.524-2.994 3.75-2.994 2.631 0 2.666-2.025.047-2.71-2.224-.582-2.593-2.297-.867-4.023.623-.623.862-1.838.531-2.7-.956-2.491-2.155-1.818-2.262 1.27M139.8 37.2c.933.933 1.467.933 2.4 0 .933-.933.667-1.2-1.2-1.2s-2.133.267-1.2 1.2M34 43c0 1.1.408 2 .906 2 .499 0 .671-.9.384-2-.288-1.1-.696-2-.907-2-.21 0-.383.9-.383 2m6-.059c0 .518.45 1.219 1 1.559.55.34 1-.084 1-.941S41.55 42 41 42s-1 .423-1 .941m-27.303 4.452c-.409 1.041-.508 2.129-.221 2.417.913.912 1.715-.583 1.333-2.482-.35-1.74-.404-1.737-1.112.065M40 48.441c0 1.407.45 2.559 1 2.559s1-.873 1-1.941-.45-2.219-1-2.559c-.567-.351-1 .49-1 1.941M156.128 49.9c-.754.478-1.203 1.375-.997 1.994.21.63.928.241 1.631-.884 1.401-2.243 1.335-2.358-.634-1.11m37.862 2.628C192.417 56.663 184.017 65 181.422 65c-3.677 0-3.793 1.816-.212 3.335 1.809.767 4.556 2.834 6.102 4.591 3.42 3.887 5.781 3.655 6.903-.678.883-3.407 1.783-3.855 4.655-2.318.956.512 2.337.56 3.069.108 1.021-.632.82-1.097-.864-1.998-2.28-1.22-2.495-4.444-.311-4.665a190.4 190.4 0 0 1 2.736-.25c2.297-.191 1.796-3.125-.534-3.125-1.267 0-2.818 1.329-4.114 3.526-1.144 1.939-2.929 3.98-3.966 4.535-1.046.56-1.886 2.081-1.886 3.415 0 3.196-1.07 3.696-3.572 1.669-4.822-3.904-4.692-5.188 1.148-11.31 4.156-4.357 5.424-6.405 5.424-8.761 0-3.734-.724-3.931-2.01-.546M5 53.083c0 2.437 2.337 2.093 2.823-.416C8.015 51.68 7.505 51 6.573 51 5.646 51 5 51.855 5 53.083m48.599-.685c.297.773 1.408 1.632 2.47 1.91 2.568.671 2.434.252-.539-1.696-1.934-1.267-2.353-1.314-1.931-.214m7.401.417c0 .525 1.161 1.716 2.579 2.645 2.528 1.656 2.573 1.643 2.25-.635-.215-1.52-1.108-2.436-2.579-2.645-1.237-.175-2.25.11-2.25.635M7.232 59c0 1.925.206 2.712.457 1.75.252-.962.252-2.538 0-3.5-.251-.962-.457-.175-.457 1.75M61 58c0 .55.477 1 1.059 1s.781-.45.441-1-.816-1-1.059-1-.441.45-.441 1m-50.5 1c.34.55.816 1 1.059 1s.441-.45.441-1-.477-1-1.059-1-.781.45-.441 1m31.579.583c.048 1.165.285 1.402.604.605.289-.722.253-1.585-.079-1.917-.332-.332-.568.258-.525 1.312m62.421.813C96.234 63.552 93 65.174 93 66.161c0 1.204.048 1.187 7.431-2.661 3.693-1.925 7.555-3.5 8.583-3.5 1.027 0 2.146-.45 2.486-1 .875-1.416-.198-1.202-7 1.396M3.232 65c0 1.925.206 2.713.457 1.75.252-.963.252-2.537 0-3.5-.251-.962-.457-.175-.457 1.75M171 70.393c0 .216.698.661 1.552.989.89.341 1.291.173.941-.393-.587-.951-2.493-1.406-2.493-.596m8 5.985c0 .207.787.995 1.75 1.75 1.586 1.243 1.621 1.208.378-.378-1.307-1.666-2.128-2.195-2.128-1.372m41.964 3.958c-.805.736-3.349 1.87-5.654 2.523-2.63.744-4.423 1.921-4.817 3.163-.75 2.363-4.266 2.617-7.052.51-2.713-2.053-4.441-1.881-4.441.442 0 1.183 1.204 2.597 3 3.526 3.229 1.67 3.827 4.203 1.77 7.497-1.663 2.663.987 5.532 4.174 4.521 2.249-.714 2.279-3.247.032-2.718-.701.165-1.935.046-2.743-.264-1.137-.436-.877-1.028 1.15-2.622 1.439-1.133 2.617-2.675 2.617-3.428 0-2.178 1.995-2.827 4.528-1.471 2.518 1.348 5.997.643 4.976-1.008-.342-.554-2.17-1.007-4.063-1.007-5.054 0-4.515-2.655.809-3.984 5.617-1.401 6.898-2.185 7.871-4.814.92-2.488.018-2.85-2.157-.866m-37.299 1.609c.641.855 3.228 4.909 5.75 9.009 2.522 4.1 4.585 7.13 4.585 6.735 0-1.459-6.009-11.285-8.711-14.244-1.534-1.68-2.265-2.355-1.624-1.5M250 94.941c0 .518.445 1.216.989 1.552.566.35.734-.051.393-.941-.665-1.732-1.382-2.049-1.382-.611m-117 4.121c0 .516.9.938 2 .938s2-.354 2-.787c0-.433-.9-.855-2-.938-1.1-.083-2 .271-2 .787m110.638 3.438c.317.825.753 1.5.969 1.5.216 0 .393-.675.393-1.5s-.436-1.5-.969-1.5c-.532 0-.709.675-.393 1.5M230 106.941c0 1.682.45 3.059 1 3.059s1-1.098 1-2.441c0-1.343-.45-2.719-1-3.059-.583-.361-1 .656-1 2.441m-137 2.118c0 1.132.43 1.793.956 1.468.526-.325.703-1.252.393-2.059-.793-2.067-1.349-1.824-1.349.591m139.167 11.35c0 2.517.394 4.82.877 5.118.823.509.353-8.463-.488-9.304-.214-.214-.389 1.669-.389 4.186m3.833-3.5c.825.583 1.045 1.067.489 1.076-.556.008-1.038 1.59-1.071 3.515-.033 1.925.048 3.5.18 3.5 1.491 0 3.247-1.441 2.745-2.254-.355-.574-.69-2.177-.744-3.563-.055-1.385-.774-2.702-1.599-2.927-1.333-.363-1.333-.29 0 .653m-9.49 2.107c.346.559 1.015.778 1.488.485.472-.292 1.055.489 1.294 1.734.377 1.96.454 1.895.572-.485.106-2.154-.31-2.75-1.923-2.75-1.14 0-1.779.454-1.431 1.016m.128 3.484c.317.825.753 1.5.969 1.5.216 0 .393-.675.393-1.5s-.436-1.5-.969-1.5c-.532 0-.709.675-.393 1.5m10.612 3.162c-1.43.577-1.699 2.338-.357 2.338.491 0 1.152-.675 1.469-1.5.316-.825.477-1.464.357-1.421-.121.043-.781.306-1.469.583m-38.055 2.838c.02 1.65.244 2.204.498 1.231.254-.973.237-2.323-.037-3-.274-.677-.481.119-.461 1.769m27.379-.833c-.352.917-.175 2.132.393 2.7.711.711 1.033.19 1.033-1.667 0-3.085-.499-3.447-1.426-1.033m-72.324 3.325c-3.438 2.296-6.25 4.596-6.25 5.112s1.238 1.486 2.75 2.155c1.512.669 3.298 1.897 3.968 2.729 1.077 1.337 1.222 1.322 1.25-.131.03-1.557 2.629-3.37 4.31-3.006 1.374.296 1.742-2.237.972-6.692l-.751-4.34-6.249 4.173m75.417-2.325c-.367.366-.653 1.379-.637 2.25.025 1.3.221 1.257 1.092-.242 1.077-1.852.765-3.228-.455-2.008m-70.588 4.916c.048 1.165.285 1.402.604.605.289-.722.253-1.585-.079-1.917-.332-.332-.568.258-.525 1.312m39 4c.048 1.165.285 1.402.604.605.289-.722.253-1.585-.079-1.917-.332-.332-.568.258-.525 1.312M158 139.833c0 .459.675.834 1.5.834s1.5-.375 1.5-.834c0-.458-.675-.833-1.5-.833s-1.5.375-1.5.833M66 143.5c0 1.375.173 2.5.383 2.5.211 0 .599-1.125.862-2.5s.09-2.5-.384-2.5c-.473 0-.861 1.125-.861 2.5m6.215 1.167c-.114 1.387.227 3.267.758 4.178.748 1.282.973.822.997-2.036.034-4.195-1.436-5.991-1.755-2.142M70.158 146c0 1.375.227 1.938.504 1.25.278-.687.278-1.812 0-2.5-.277-.687-.504-.125-.504 1.25m7.921 4.583c.048 1.165.285 1.402.604.605.289-.722.253-1.585-.079-1.917-.332-.332-.568.258-.525 1.312M200.1 166.34c-.131 2.406 4.715 9.121 7.9 10.949 3.193 1.832 8.766 2.898 9.441 1.806.286-.462-1.085-1.1-3.046-1.418-3.889-.631-12.424-7.657-13.545-11.15-.577-1.798-.662-1.819-.75-.187m3.125 17.91c.883.688 1.757 2.113 1.941 3.167.462 2.65 2.834 3.255 2.834.723 0-1.115-1-2.727-2.223-3.583-2.635-1.846-4.878-2.116-2.552-.307m-30.841 8.494c1.036 1.215 2.363 1.912 2.95 1.549.684-.422.546-.821-.383-1.11-.798-.249-2.126-.946-2.951-1.55-.825-.604-.652-.104.384 1.111M168 195.5c0 .825.436 1.5.969 1.5.532 0 .709-.675.393-1.5-.317-.825-.753-1.5-.969-1.5-.216 0-.393.675-.393 1.5m63.5.5c-.34.55-.141 1 .441 1s1.059-.45 1.059-1-.198-1-.441-1-.719.45-1.059 1m.043 5.931c-.317.512-.118 1.213.441 1.559.559.345 1.016-.074 1.016-.931 0-1.757-.6-2.015-1.457-.628m3.472-.181c.009.412.452 1.425.985 2.25.784 1.213.972 1.069.985-.75.008-1.238-.435-2.25-.985-2.25s-.993.338-.985.75m-79.179 3.322c-1.344.752-1.548 2.012-1.109 6.855l.538 5.933-3.707.695c-2.272.426-4.13.273-4.799-.396-1.8-1.8-1.293-7.287.824-8.922 1.778-1.373 1.672-1.435-1.458-.859-1.856.342-4.106.636-5 .654-1.398.027-1.366.228.225 1.433 1.018.771 1.597 1.812 1.288 2.312-.31.501-.109 2.556.446 4.567.909 3.29 1.349 3.656 4.398 3.656 1.863 0 4.476-.414 5.806-.919 2.144-.815 2.604-.531 4.049 2.5.897 1.88 2.098 3.419 2.67 3.419.575 0 .348-1.054-.509-2.362-.851-1.3-1.833-5.421-2.182-9.159-.625-6.686-.599-6.786 1.617-6.207 2.213.579 2.22.552.42-1.592-1.008-1.199-1.84-2.259-1.851-2.355-.01-.096-.76.24-1.666.747M135 210.559c0 .857.45 1.281 1 .941.55-.34 1-1.041 1-1.559s-.45-.941-1-.941-1 .702-1 1.559m96.195.941c.02 1.65.244 2.204.498 1.231.254-.973.237-2.323-.037-3-.274-.677-.481.119-.461 1.769m6.884.083c.048 1.165.285 1.402.604.605.289-.722.253-1.585-.079-1.917-.332-.332-.568.258-.525 1.312M2 212.559c0 .857.457 1.276 1.016.931.559-.346.758-1.047.441-1.559C2.6 210.544 2 210.802 2 212.559m238 2.5c0 .582.45.781 1 .441s1-.816 1-1.059-.45-.441-1-.441-1 .477-1 1.059M24 216c0 .55.477 1 1.059 1s.781-.45.441-1-.816-1-1.059-1-.441.45-.441 1m166.259 3.001c-2.332 1.616-5.636 3.66-7.343 4.542-1.706.883-2.867 1.839-2.581 2.126.55.55 14.665-8.256 14.665-9.149 0-.777-.154-.697-4.741 2.481m-152.18 2.582c.048 1.165.285 1.402.604.605.289-.722.253-1.585-.079-1.917-.332-.332-.568.258-.525 1.312m56.969 2.636c-.041 4.021-.307 4.639-1.798 4.181-.963-.296-.625.133.75.952 3.527 2.103 4.529-.057 2.59-5.588l-1.495-4.264-.047 4.719M66 222.559c0 .857.457 1.276 1.016.931.559-.346.758-1.047.441-1.559-.857-1.387-1.457-1.129-1.457.628M24.5 223c-.34.55-.141 1 .441 1S26 223.55 26 223s-.198-1-.441-1-.719.45-1.059 1m-15.421 1.583c.048 1.165.285 1.402.604.605.289-.722.253-1.585-.079-1.917-.332-.332-.568.258-.525 1.312m23 0c.048 1.165.285 1.402.604.605.289-.722.253-1.585-.079-1.917-.332-.332-.568.258-.525 1.312M46.71 225c.288 1.1.696 2 .907 2 .21 0 .383-.9.383-2s-.408-2-.906-2c-.499 0-.671.9-.384 2m45.749-.933c-.363.586-.445 1.281-.183 1.543s.743-.218 1.069-1.067c.676-1.762.1-2.072-.886-.476M66 227.167c0 1.191.313 1.853.696 1.471 1.08-1.081 1.232-3.638.216-3.638-.502 0-.912.975-.912 2.167m109 .333c-1.375.786-2.05 1.429-1.5 1.429.55 0 2.125-.643 3.5-1.429s2.05-1.429 1.5-1.429c-.55 0-2.125.643-3.5 1.429m-143.404 1.111c-.453 1.18-.192 1.448.974 1 .877-.336 1.782-.611 2.012-.611.23 0 .418-.45.418-1 0-1.629-2.733-1.138-3.404.611m31.483-.028c.048 1.165.285 1.402.604.605.289-.722.253-1.585-.079-1.917-.332-.332-.568.258-.525 1.312M238 228.5c0 .825.436 1.5.969 1.5.532 0 .709-.675.393-1.5-.317-.825-.753-1.5-.969-1.5-.216 0-.393.675-.393 1.5m-160.921 1.083c.048 1.165.285 1.402.604.605.289-.722.253-1.585-.079-1.917-.332-.332-.568.258-.525 1.312M43 230.059c0 .582.45.781 1 .441s1-.816 1-1.059-.45-.441-1-.441-1 .477-1 1.059m23.5.941c.34.55.816 1 1.059 1s.441-.45.441-1-.477-1-1.059-1-.781.45-.441 1m16.624.767c-.921 1.722-.752 1.884 1.511 1.452 1.402-.268 2.17-.77 1.707-1.115a10.207 10.207 0 0 1-1.511-1.451c-.368-.453-1.136.048-1.707 1.114m141.212 1.8c-.331.862-.137 2.032.432 2.601.711.711.986.222.882-1.567-.173-2.996-.471-3.231-1.314-1.034m3.906 1.666c.111 1.59.562 2.363 1.078 1.847s.436-1.66-.191-2.734c-.947-1.62-1.055-1.511-.887.887m15.837 3.35c.048 1.165.285 1.402.604.605.289-.722.253-1.585-.079-1.917-.332-.332-.568.258-.525 1.312m-4 1c.048 1.165.285 1.402.604.605.289-.722.253-1.585-.079-1.917-.332-.332-.568.258-.525 1.312M74.015 243.25c.011 2.21.292 2.814.878 1.889.786-1.241.4-5.139-.51-5.139-.21 0-.376 1.463-.368 3.25m-25.763 1.25c.011 2.2.216 2.982.455 1.738.239-1.244.23-3.044-.02-4s-.446.062-.435 2.262m32.906-.5c0 1.375.227 1.938.504 1.25.278-.687.278-1.812 0-2.5-.277-.687-.504-.125-.504 1.25m146.759-1.25-.336 3.042c-.139 1.261.11 2.517.554 2.791.444.275.747-1.094.674-3.042-.118-3.129-.665-4.84-.892-2.791m9.083 5.132c0 .55.45 1.278 1 1.618.55.34 1 .168 1-.382s-.45-1.278-1-1.618c-.55-.34-1-.168-1 .382m3 1.677c0 1.407.408 2.307.906 1.999.498-.308.671-1.46.383-2.559-.719-2.752-1.289-2.504-1.289.56m3.711-.56c-.288 1.099-.115 2.251.383 2.559.498.308.906-.592.906-1.999 0-3.064-.57-3.312-1.289-.56" fill="#1976D2" fill-rule="evenodd"/><path fill-opacity=".541" d="M88 9.059c0 .582.45.781 1 .441s1-.816 1-1.059S89.55 8 89 8s-1 .477-1 1.059m25.667 12.608c-.914.914-.845 5.333.083 5.333.412 0 .75-1.35.75-3s-.037-3-.083-3c-.046 0-.384.3-.75.667M108.232 26c0 1.925.206 2.712.457 1.75.252-.962.252-2.538 0-3.5-.251-.962-.457-.175-.457 1.75m12.988.978c-.095 3.347 1.248 4.851 2.175 2.435.333-.867-.002-2.441-.743-3.499-1.261-1.801-1.353-1.733-1.432 1.064m8.78.522c0 .825.375 1.5.833 1.5.459 0 .834-.675.834-1.5s-.375-1.5-.834-1.5c-.458 0-.833.675-.833 1.5m-13.947 1c-.716 3.262-.623 5.47.196 4.651.506-.506.719-1.985.472-3.286s-.547-1.915-.668-1.365m8.097 2.719c-.09 1.032-.709 1.504-1.549 1.181-.769-.295-1.696-.056-2.059.532-.39.631.285 1.115 1.649 1.184 1.603.081 1.791.253.614.563-.932.245-1.467 1.037-1.19 1.759.277.722-.617 2.606-1.986 4.187l-2.49 2.875.083-3.264c.046-1.795-.228-3.575-.608-3.956-.381-.38-.502 1.344-.269 3.831.267 2.86-.112 5.416-1.031 6.955-.798 1.339-1.216 1.661-.927.716.289-.945.175-1.935-.254-2.2-.429-.265-.88 1.706-1.002 4.381-.122 2.674.207 5.128.73 5.451.541.335.747-.384.477-1.663-.459-2.172-.432-2.181.758-.251.678 1.1 1.675 2.292 2.214 2.649.54.357.707 1.364.372 2.238-.336.874-.289 1.505.104 1.403.393-.102 1.618.124 2.722.502 1.676.575 1.974 1.476 1.805 5.449-.111 2.617.026 3.996.305 3.064.299-1 1.113-1.462 1.986-1.127 1.642.63 1.559-1.691-.104-2.913-.55-.404-.06-.741 1.088-.75 1.71-.012 2.113.639 2.224 3.601.075 1.989.71 4.325 1.412 5.192.81 1.001.851 1.321.111.878-.64-.384-1.315-.277-1.5.239-.408 1.141-11.819 1.53-17.335.59-7.776-1.324-13.818-4.548-21.471-11.455-3.421-3.088-7.566-4.857-8.706-3.716-.829.828 2.13 6.624 5.136 10.062C86.857 71.004 88 72.59 88 72.932c0 1.926 13.627 10.556 20.136 12.752 11.317 3.817 28.83 5.01 33.88 2.307 1.987-1.063 2.984-.379 2.984 2.045 0 1.135.751 1.664 2.25 1.584 1.753-.094 2.32.493 2.569 2.656.493 4.293-6.007 6.77-18.394 7.007l-9.56.183.657 3.517c.838 4.487 1.082 4.685 3.301 2.678 2.563-2.32 2.859-2.152 3.685 2.089.618 3.172.856 3.442 1.541 1.75.493-1.217.838-1.432.881-.55.052 1.082.358 1.162 1.206.314 1.478-1.478 4.334 1.15 3.236 2.978-.475.79-.093.72 1.025-.188 1.553-1.262 1.754-1.262 1.573 0-.501 3.495.13 5.946 1.53 5.946 1.431 0 1.909 1.104 1.592 3.675-.08.646.312 1.456.87 1.802.61.376.762-.033.382-1.024-.559-1.456-.381-1.493 1.511-.311 2.443 1.525 2.73 4.503.693 7.189-1.317 1.739-1.41 1.714-1.832-.5-.37-1.942-.469-1.831-.595.669-.083 1.65-.588 3.675-1.121 4.5-.772 1.195-.988.992-1.061-1-.081-2.231-.236-2.124-1.439 1-.964 2.503-1.392 2.93-1.503 1.5-.124-1.606-.356-1.45-1.173.792-.819 2.245-1.293 2.564-2.421 1.627-1.069-.887-1.403-.883-1.403.018 0 .649-.37.953-.822.673-.452-.279-1.625.431-2.606 1.577-1.451 1.695-1.95 1.826-2.664.699-.51-.806-.884-.912-.893-.253-.008.624-.915 1.369-2.015 1.657-1.241.324-2 1.364-2 2.739 0 1.875-.235 2.021-1.529.947-1.269-1.053-1.951-.874-4 1.052-2.31 2.169-2.475 2.195-2.534.396-.053-1.588-.233-1.5-1.035.507-1.288 3.223.213 7.388 3.798 10.542 2.118 1.864 3.956 2.471 7.547 2.495 4.071.028 5.316-.482 8.745-3.58 3.592-3.245 4.381-3.541 7.753-2.916 2.065.384 4.59 1.447 5.611 2.363 3.153 2.827 5.644 8.865 5.644 13.675 0 10.757-7.565 16.63-20.532 15.939-2.182-.117-3.18-.007-2.217.243 1.336.347 1.601 1.089 1.121 3.131-.431 1.83-.304 2.36.402 1.677.567-.55 1.253-1.9 1.523-3 .469-1.91.523-1.9 1.207.225l.716 2.225 1.857-2.225c1.644-1.97 1.86-2.018 1.89-.416.018.995-.412 1.534-.956 1.198-.57-.353-.732.057-.381.971.388 1.012 1.285 1.367 2.488.984 1.04-.33 1.882-.119 1.882.471 0 .995-1.122 1.184-8.25 1.391-1.512.044-2.75.466-2.75.937 0 .471-.45.579-1 .239-.55-.34-1.007-.029-1.015.691-.01.799-.302.92-.75.309-.404-.55-1.708-1.134-2.898-1.298-1.941-.268-2.146.131-2 3.886.13 3.345.614 4.351 2.413 5.016 1.518.561 2.25.454 2.25-.327 0-.645.555-.45 1.25.438 3.109 3.974 19.51 3.546 27.769-.725 7.917-4.094 17.746-16.733 18.492-23.778.128-1.217.291-2.539.361-2.938.071-.399 1.674-2.132 3.563-3.851 4.509-4.103 11.93-15.238 14.498-21.753 5.198-13.188 6.444-30.237 3.139-42.96-2.095-8.066-3.478-10.375-5.705-9.521-.948.364-1.681-.175-2.025-1.49-.297-1.133-1.17-2.303-1.941-2.598-.775-.298-1.401-1.892-1.401-3.57 0-2.028-.497-3.031-1.5-3.031-.92 0-1.5-.935-1.5-2.417 0-1.329-.437-2.566-.971-2.75-.534-.183-1.118-1.302-1.297-2.485-.43-2.843-2.692-5.491-4-4.682-.577.356-.745.164-.377-.431.365-.591-.503-1.993-1.929-3.115-2.419-1.902-2.596-4.961-.202-3.482.597.369.805.218.463-.336-.342-.553.263-2.743 1.345-4.866C179.538 55.6 175.637 47 167.124 47c-5.368 0-8.249 1.444-10.578 5.302l-1.931 3.198-.676-3.5-.676-3.5-.233 3-.234 3-1.043-3.25c-.573-1.788-1.454-3.25-1.957-3.25-.503 0-.636-.45-.296-1s.141-1-.441-1-1.104 1.237-1.159 2.75c-.091 2.506-.157 2.553-.75.522-.357-1.225-1.437-3.143-2.4-4.261-.963-1.119-1.75-2.505-1.75-3.081 0-.577-.452-.769-1.004-.428s-.711 1.785-.354 3.208c.456 1.815.307 2.377-.496 1.88-.63-.389-1.198-2.369-1.262-4.399-.064-2.03-.317-2.928-.563-1.996-.496 1.883-3.321 1.345-3.321-.633 0-.673-1.11-1.818-2.466-2.544s-2.288-1.608-2.07-1.96c.218-.352-1.113-.464-2.958-.248-3.038.354-3.394.122-3.78-2.459-.235-1.568-.494-2.078-.576-1.132m4.929 1.364c.048 1.165.285 1.402.604.605.289-.722.253-1.585-.079-1.917-.332-.332-.568.258-.525 1.312m-20.824 5.38c-1.025 1.642-.983 1.87.26 1.393.817-.313 1.485-1.197 1.485-1.963 0-1.855-.289-1.76-1.745.57m30.327 18.904c-.294.476 1.817 1.363 4.691 1.971 2.875.608 6.239 1.395 7.477 1.75 1.593.457 2.25.223 2.25-.8 0-2.279-13.166-4.947-14.418-2.921M119 62.5c0 .825.177 1.5.393 1.5.216 0 .652-.675.969-1.5.316-.825.139-1.5-.393-1.5-.533 0-.969.675-.969 1.5m10 6.167c0 2.935 1.208 2.439 1.686-.693.166-1.086-.146-1.974-.692-1.974-.547 0-.994 1.2-.994 2.667m4.079-1.084c.048 1.165.285 1.402.604.605.289-.722.253-1.585-.079-1.917-.332-.332-.568.258-.525 1.312m15 26c.048 1.165.285 1.402.604.605.289-.722.253-1.585-.079-1.917-.332-.332-.568.258-.525 1.312M119.252 104.5c.011 2.2.216 2.982.455 1.738.239-1.244.23-3.044-.02-4s-.446.062-.435 2.262m79.347 3.455c.758 2.5 1.384 5.981 1.39 7.736.006 1.755.537 3.516 1.181 3.914.787.486.961.178.531-.941-.351-.915-.315-1.665.08-1.667.396-.002.731-2.027.745-4.5.015-2.473-.322-4.497-.75-4.497-.427 0-.776-.702-.776-1.559s-.45-1.281-1-.941c-.55.34-1 .179-1-.358 0-.536.563-1.192 1.25-1.457.688-.265.287-.435-.891-.379-2.072.1-2.096.248-.76 4.649M125 105c0 .55.45 1 1 1s1-.45 1-1-.45-1-1-1-1 .45-1 1m34.182 22.027c-3.474 2.204-6.806 3.705-7.404 3.336-.607-.375-.803-.212-.444.369.354.573-.026 1.597-.845 2.277-1.258 1.044-1.489.803-1.489-1.553 0-1.534-.298-2.491-.662-2.127-.364.364-.601 2.293-.526 4.287.143 3.816 1.338 5.175 6.943 7.9 1.791.871 4.331 2.742 5.645 4.159l2.389 2.577 1.72-2.626c.947-1.444 2.514-2.626 3.484-2.626 2.156 0 4.112-2.206 4.14-4.67.052-4.654-2.172-11.618-4.088-12.802-.593-.366-.819-1.085-.502-1.597 1.266-2.049-2.376-.7-8.361 3.096m42.09-.027c0 2.475.195 3.488.434 2.25.238-1.238.238-3.263 0-4.5-.239-1.237-.434-.225-.434 2.25m-56.729-.069c-.317.512-.118 1.213.441 1.559.559.345 1.016-.074 1.016-.931 0-1.757-.6-2.015-1.457-.628m56.064 6.651c-.844 2.2-.759 5.418.143 5.418.412-.001.836-1.576.942-3.5.208-3.796-.133-4.399-1.085-1.918M144.5 137c-.34.55-.141 1 .441 1s1.059-.45 1.059-1-.198-1-.441-1-.719.45-1.059 1m54.5 5.111c0 3.111-4.877 14.722-8.731 20.783-1.886 2.967-5.711 7.808-8.501 10.758-3.891 4.114-5.052 6.064-4.986 8.373.047 1.656-.248 2.805-.656 2.553-.408-.252-.847 1.314-.975 3.482-.276 4.683 1.491 5.264 2.985.981 1.55-4.447 6.911-5.414 6.832-1.232-.017.93-.692 2.565-1.5 3.632-2.112 2.792-1.833 3.844 1.525 5.755 1.776 1.01 3.64 3.344 4.613 5.777.898 2.244 2.564 4.733 3.703 5.531 2.713 1.9 1.397 3.124-2.079 1.932-1.924-.66-3.45-2.485-5.171-6.186-2.505-5.388-5.351-7.088-5.02-3 .315 3.884.009 4.75-1.675 4.75-1.359 0-1.533-.748-1.031-4.413.577-4.21.468-4.461-2.364-5.448-1.81-.631-2.969-.665-2.969-.087 0 .521.354.948.786.948 1.35 0 .858 3.609-.691 5.056-1.271 1.188-1.38 1.128-.782-.429.381-.994.453-2.197.158-2.674-.795-1.286-3.471.035-3.471 1.713 0 .871.5 1.17 1.25.746 1-.564 1-.436 0 .641-1.554 1.675-1.655 7.947-.128 7.947.799 0 .816.369.061 1.279-.584.704-1.021 2.729-.97 4.5.07 2.455.539 3.221 1.974 3.221 1.552 0 1.701-.34.848-1.934-1.144-2.137-1.4-6.066-.395-6.066 1.389 0 3.302 3.659 3.398 6.5.057 1.65.489 3.9.962 5 .713 1.659.888 1.404 1.029-1.5.141-2.892.283-3.102.821-1.207.645 2.277.66 2.279 2.106.27 1.36-1.889 1.617-1.918 3.873-.439 1.33.871 2.151 1.152 1.825.625-.326-.527.618-2.036 2.097-3.354 1.478-1.317 2.075-1.597 1.326-.621-.749.976-1.073 2.063-.72 2.417.354.353.643.117.643-.524 0-.642.613-1.167 1.362-1.167.86 0 1.262-.922 1.089-2.5-.151-1.375.135-2.5.637-2.5s.912.955.912 2.122c0 1.774.247 1.918 1.5.878.825-.685 1.514-2.427 1.532-3.872.029-2.441.129-2.499 1.404-.818 1.373 1.81 3.293.679 2.107-1.241-.317-.512-.07-1.243.547-1.625.806-.498.763-.917-.154-1.484-1.021-.631-.98-1.259.205-3.125.816-1.284 1.582-4.022 1.702-6.085.176-3.003-.135-3.756-1.562-3.78-1.688-.029-1.69-.084-.031-1.05 1.104-.643 1.738-2.202 1.718-4.22-.029-2.96-.137-3.061-1.433-1.35-1.832 2.417-3.661 1.215-3.311-2.175.243-2.356-.112-2.712-2.974-2.988-2.7-.261-3.25-.73-3.25-2.772 0-1.352 1.115-4.143 2.478-6.203 1.363-2.06 2.764-5.171 3.112-6.914.644-3.217 2.719-4.843 4.655-3.647.64.396.77.182.325-.537-.423-.685-1.609-.919-2.779-.548-1.361.432-1.813.279-1.357-.459.376-.609 1.445-1.114 2.375-1.122 1.271-.012 1.369-.22.394-.839-1.062-.673-1.059-1.02.013-1.91 1.677-1.392 1.143-10.508-.566-9.659-.633.314-.339-.092.653-.902 1.356-1.108 1.48-1.603.5-1.998-1.062-.428-1.057-.698.031-1.462 1.083-.76 1.036-1.051-.25-1.544-1.128-.433-1.584-.018-1.584 1.44M92.046 159c-.155 2.91-.332 3.163-1.046 1.5-.579-1.347-.887-1.51-.945-.5-.076 1.333-.193 1.333-1.055 0-.803-1.242-.969-1.156-.967.5.001 1.873 4.906 7.591 5.575 6.5.168-.275.979.4 1.801 1.5 1.446 1.933 1.519 1.891 2.165-1.234.857-4.14 2.536-3.218 1.984 1.091-.229 1.789-.005 3.904.497 4.698.602.951.92-1.02.93-5.77.013-6.472-.217-7.337-2.235-8.4-1.237-.651-2.581-1.68-2.985-2.285-.453-.679-.74-.43-.75.65-.008.963-.432 1.75-.942 1.75-.509 0-1.132-.787-1.384-1.75-.251-.963-.541-.175-.643 1.75M84 158.378c0 .207.787.995 1.75 1.75 1.586 1.243 1.621 1.208.378-.378-1.307-1.666-2.128-2.195-2.128-1.372m18 7.063c0 3.064.57 3.312 1.289.56.288-1.099.115-2.251-.383-2.559-.498-.308-.906.592-.906 1.999m93.75 8.029c-2.204 3.03-2.225 4.53-.064 4.53.927 0 2.767 1.012 4.09 2.25l2.404 2.25-.266-4.5c-.423-7.152-2.922-8.989-6.164-4.53m3.793.461c-.317.512-.193 1.167.274 1.456.467.289.85-.13.85-.931 0-1.686-.316-1.833-1.124-.525M196.5 176c-.34.55-.141 1 .441 1s1.059-.45 1.059-1-.198-1-.441-1-.719.45-1.059 1M145 193c-.901.582-1.025.975-.309.985.655.008 1.469-.435 1.809-.985.767-1.242.421-1.242-1.5 0m51.079 3.583c.048 1.165.285 1.402.604.605.289-.722.253-1.585-.079-1.917-.332-.332-.568.258-.525 1.312m-76.156 2.167c-.042.412-.227 1.537-.411 2.5-.184.963.075 1.75.576 1.75.502 0 .912-1.125.912-2.5 0-2.222-.882-3.656-1.077-1.75m53.157 6c-.566.971-1.033 1.194-1.05.5-.016-.687-.489-1.25-1.05-1.25-1.393 0-.362 5.141 1.234 6.154 2.772 1.758 3.806.344 1.536-2.101-.687-.74-.8-1.098-.25-.795.55.303 1-.531 1-1.853 0-2.872-.101-2.919-1.42-.655m22.999 1.833c.048 1.165.285 1.402.604.605.289-.722.253-1.585-.079-1.917-.332-.332-.568.258-.525 1.312M166 213.441c0 .857.45 1.559 1 1.559s1-.423 1-.941-.45-1.219-1-1.559c-.55-.34-1 .084-1 .941m.625 7.357c-.271.439-.093 1.445.397 2.237.671 1.086.848.889.721-.798-.183-2.427-.364-2.66-1.118-1.439m2.375.761c0 .857.45 1.281 1 .941.55-.34 1-1.041 1-1.559s-.45-.941-1-.941-1 .702-1 1.559m12.441.996c-1.864 1.494-1.852 1.512.309.465 1.238-.6 2.25-1.3 2.25-1.555 0-.765-.519-.544-2.559 1.09" fill="#1976D2" fill-rule="evenodd"/></svg>