<svg xmlns="http://www.w3.org/2000/svg" width="256" height="256"><path fill-opacity=".275" d="M0 128.004v128.004l128.25-.254 128.25-.254.254-127.75L257.008 0H0v128.004m.485.496c0 70.4.119 99.053.265 63.672.146-35.38.146-92.98 0-128C.604 29.153.485 58.1.485 128.5" fill="#1976D2" fill-rule="evenodd"/><path fill-opacity=".254" d="M.015 45.25C.025 72.738.411 91.089 1 92c.533.825.983 1.05 1 .5.017-.55.467-.325 1 .5.752 1.164.973.869.985-1.317.013-2.36.34-2.715 2.015-2.183 1.375.436 2 .18 2-.822 0-.8.761-1.393 1.692-1.317.93.077 2.273-.986 2.985-2.361l1.294-2.5.13 3c.075 1.704.329 2.244.588 1.25.252-.963.861-1.75 1.353-1.75s.613.787.267 1.75c-.345.963-.289 1.446.124 1.074.413-.371 1.365-2.396 2.115-4.5 1.359-3.808 1.365-3.812 1.489-.824l.125 3 1.27-2.873 1.269-2.873.78 3.373c.588 2.542.898 2.899 1.257 1.447.715-2.892 10.421-20.749 10.976-20.194.264.265-.17 1.75-.965 3.301-4.004 7.809-4.907 10.254-4.206 11.388.463.75.355.986-.275.597-.572-.354-1.299.344-1.615 1.552-.85 3.253.217 3.58 2.502.767 1.11-1.367 1.802-2.035 1.537-1.485-.265.55.146 1.58.913 2.289 1.166 1.078 1.395.872 1.395-1.25 0-2.935 1.443-3.325 2.92-.789.629 1.08 1.031 1.249 1.05.441.016-.72.48-1.031 1.03-.691.55.34 1-.046 1-.858 0-.811-.54-1.655-1.199-1.875-.751-.25-.563-.644.5-1.052C41.669 76.19 42 76.652 42 79.09c0 1.797.413 2.773 1.016 2.4.559-.346.758-1.047.441-1.559-.316-.512-.098-.931.484-.931s1.059.398 1.059.883c0 .486 1.111 1.096 2.47 1.356 1.358.26 2.235.092 1.948-.372-.287-.464.174-.577 1.024-.251.851.327 1.298.996.993 1.489-.304.492-.028.895.613.895.652 0 .899-.697.559-1.582-.334-.87-.607-1.77-.607-2 0-.23-1.098-.418-2.441-.418-1.343 0-2.707-.43-3.032-.956-.325-.526-1.313-.68-2.195-.341-1.018.39-1.454.164-1.193-.619.491-1.473.665-1.49 6.296-.646 2.421.363 4.939 1.308 5.597 2.1.657.792 1.663 1.15 2.236.796.572-.353.751-.174.398.398-.354.573-.007 1.57.773 2.217 1.156.96 1.494.659 1.839-1.637L60.7 77.5l.15 2.725c.137 2.495.366 2.643 2.707 1.753 1.42-.539 2.309-.57 1.998-.067-.307.497-.137 1.958.38 3.247.86 2.148.943 2.172 1.002.292C67.041 82.066 71 79.192 71 82.5c0 2.431 1.755 1.723 3.641-1.469.964-1.632 2.339-3.193 3.056-3.468 1.522-.584 1.774 1.028.303 1.937-1.631 1.008-1.213 6.167.5 6.167.825 0 1.51-.713 1.522-1.584.033-2.337 3.928 2.914 3.956 5.334.032 2.77 1.065 1.318 1.459-2.051.184-1.576.421-3.541.525-4.366.105-.825.797.075 1.538 2s1.382 3.062 1.424 2.527c.042-.534.831.105 1.753 1.422 1.59 2.27 1.716 2.294 2.429.472.617-1.574.787-1.379.94 1.079.102 1.65.382 2.261.623 1.357.597-2.245 4.331-1.186 4.331 1.228 0 1.236.499 1.661 1.5 1.277.845-.325 1.5-.025 1.5.686 0 .875.558.757 1.82-.385 1.554-1.406 2.09-1.449 3.671-.293 1.018.744 1.954 2.051 2.079 2.904.184 1.256-.277 1.379-2.421.645-4.34-1.486-18.392-2.651-22.045-1.829-4.067.916-5.339 2.548-4.608 5.91.299 1.375.824 4.3 1.167 6.5.342 2.2 1.368 5.125 2.279 6.5.91 1.375 2.137 3.625 2.725 5 1.821 4.259 9.982 12.538 14.261 14.468 3.852 1.737 4.181 1.744 5.969.125 1.376-1.245 1.792-2.72 1.523-5.403-.614-6.133.719-13.329 2.866-15.476 1.76-1.76 2.874-1.921 9.647-1.399 9.453.729 10.729 1.202 11.496 4.257.662 2.641 2.238 3.324 2.238.972 0-.801-.375-1.224-.834-.941-.458.283-.833.038-.833-.544 0-.582.675-1.059 1.5-1.059s1.5.702 1.5 1.559c0 .911.473 1.267 1.138.855 2.076-1.282-.149 6.81-2.707 9.851-1.321 1.57-4.771 4.688-7.667 6.929-2.895 2.241-5.714 4.62-6.264 5.287-.55.666-2.409 1.94-4.132 2.83-2.356 1.217-3.305 2.54-3.829 5.335-.457 2.434-.972 3.272-1.493 2.428-.561-.907-.998-.961-1.48-.181-.376.609-.406 1.557-.066 2.107.34.55-.084 1-.941 1s-1.573.787-1.589 1.75c-.029 1.658-.085 1.657-1.058-.014-.835-1.434-1.266-1.524-2.309-.482-.705.705-1.543 1.949-1.863 2.764-.372.948-.639.58-.74-1.018l-.158-2.5-1.009 2.764-1.009 2.765-4.044-3.204c-7.207-5.708-10.199-7.694-14.78-9.813-2.475-1.145-5.363-2.568-6.419-3.161-2.917-1.64-7.346-2.315-15.324-2.334-7.35-.017-9.782 1.4-4.557 2.656 4.964 1.193 11.258 3.775 15.077 6.185 2.047 1.292 4.65 2.644 5.784 3.003 1.134.36 3.551 2.191 5.372 4.07 3.215 3.317 3.282 3.556 2.307 8.243-.672 3.232-1.043 3.937-1.122 2.135-.189-4.304-2.101-4.404-2.254-.118-.083 2.317-.306 2.928-.57 1.559-.238-1.238-.81-2.25-1.27-2.25-.46 0-.58 1.013-.266 2.25.853 3.364 3.29 6.75 4.857 6.75.762 0 1.385.45 1.385 1 0 1.779 1.997 1.058 2.079-.75.043-.963.297-1.213.565-.556.267.656 1.131.946 1.921.643.789-.303 1.435.002 1.435.678 0 .916.343.945 1.342.116.738-.612 1.638-.818 2-.456.362.362.672-.429.69-1.758.03-2.316.092-2.338 1.468-.52.79 1.044 1.156 2.351.813 2.905-.342.554-.13.703.471.331.666-.411 2.356 1.97 4.319 6.083 1.774 3.717 4.944 8.933 7.045 11.59 2.517 3.184 3.679 5.575 3.41 7.013-.225 1.199-.443 2.567-.484 3.038-.041.471-.749.598-1.574.281-1.04-.399-1.536.106-1.618 1.643-.094 1.758-.277 1.595-.882-.781-.719-2.826-.774-2.855-.952-.5-.173 2.299-.255 2.339-1.013.5-.786-1.905-.874-1.882-1.867.5-.572 1.375-1.07 1.877-1.105 1.115-.037-.816-.918-.298-2.143 1.26-1.144 1.454-2.494 2.388-3 2.076-.506-.313-.92.583-.92 1.99 0 1.651-.553 2.559-1.559 2.559-.857 0-1.281.45-.941 1 .34.55.141 1-.441 1S91 217.648 91 218.441s-.408 1.693-.907 2.001c-1.207.746-.116-3.396 1.594-6.051 1.095-1.7 1.111-2.296.086-3.073-2.585-1.958-5.698-1.232-7.884 1.838-1.625 2.282-2.36 2.7-2.981 1.695-.454-.734-.57-2.351-.258-3.593.561-2.237-.441-2.707-5.389-2.528-.682.024-1.056-.253-.832-.615.224-.363.051-3.125-.386-6.138-.653-4.506-.829-4.856-.995-1.977-.296 5.153-.777 7.13-2.038 8.381-.836.829-.956.665-.462-.631.386-1.014.2-1.75-.441-1.75-.609 0-1.107 1.2-1.107 2.667 0 4.271-.885 2.197-1.587-3.721-.822-6.926-1.413-7.601-1.413-1.613 0 2.653-.463 4.667-1.072 4.667-.589 0-.989-1.013-.889-2.25.1-1.238.069-3.375-.07-4.75-.188-1.858-.409-1.514-.861 1.344l-.608 3.844-2.5-2.076a477.626 477.626 0 0 1-3.841-3.218c-1.105-.942-1.271-.141-.938 4.538.223 3.125.104 5.867-.263 6.094-.367.227-1.698-.685-2.958-2.026-1.26-1.341-2.675-2.201-3.145-1.91-.47.29-.855.01-.855-.623 0-1.533-3.232-5.402-4.774-5.717-.674-.138-1.226.227-1.226.809 0 .582-.412.805-.915.494-.503-.311-1.142 0-1.421.691-.402.998-.522.999-.585.006-.043-.687-.781-1.25-1.638-1.25-.857 0-1.337-.359-1.066-.798.271-.439.149-1.354-.271-2.034-.858-1.389-3.77-.617-4.404 1.167-.227.641-.308.427-.179-.474.129-.902-.154-2.252-.628-3-.657-1.037-.866-.905-.878.556-.008 1.054-.316 1.616-.683 1.248-.742-.741 1.604-5.665 2.698-5.665.381 0 .478 1.125.215 2.5s-.055 2.5.462 2.5c1.405 0 .998-11.696-.457-13.15-.687-.688-1.25-1.835-1.25-2.55 0-.715-.477-1.3-1.059-1.3s-.803-.414-.491-.919c.313-.506-.111-1.599-.941-2.429-.83-.83-1.509-1.97-1.509-2.534 0-2.124-2.332-6.031-3.258-5.459-.531.329-1.408-.023-1.948-.781-.766-1.074-.861-.999-.432.34.303.945.16 1.959-.317 2.254-.477.295-.73 1.772-.56 3.282.466 4.165-.888 5.247-1.56 1.246-.586-3.489-.591-3.492-1.693-1-1.052 2.379-1.108 2.313-1.169-1.372-.054-3.326-.275-3.697-1.563-2.628-1.26 1.046-1.511.865-1.57-1.128-.066-2.218-.126-2.242-.93-.372-.473 1.1-.891 1.438-.93.75-.038-.687-.492-1.25-1.007-1.25-.516 0-.756 1.688-.534 3.75.347 3.227.302 3.331-.323.75-.752-3.107-2.9-3.34-2.378-.258.202 1.195-.176 1.562-1.203 1.167-.878-.336-1.262-1.265-.927-2.242.433-1.265.159-1.185-1.138.333-1.694 1.983-1.704 1.981-1.227-.251.264-1.239.107-2.021-.351-1.738-.457.282-1.037-.28-1.29-1.249-.253-.969-.512 18.152-.576 42.492L0 256.008l128.25-.254 128.25-.254.261-44.427c.143-24.435.048-44.215-.212-43.956-.259.26-.549 6.977-.643 14.928-.169 14.183-1.429 28.794-1.808 20.955-.093-1.925-.76-4.565-1.481-5.867-1.125-2.028-1.405-2.128-1.954-.698-.377.982-.233 1.417.348 1.058 1.256-.776 1.25.556-.011 2.507-.862 1.333-.973 1.333-1 0-.027-1.333-.138-1.333-1 0-.701 1.085-.995.117-1.064-3.5-.051-2.75-.321-4.437-.598-3.75-1.322 3.276-2.338.535-2.338-6.309 0-4.157-.39-7.318-.866-7.024-.476.294-.659 1.618-.406 2.942s.043 2.665-.467 2.98c-1.156.714-1.436-1.05-1.52-9.589-.037-3.712-.459-6.75-.939-6.75-.48 0-.457-.787.05-1.75.779-1.479.871-3.999.276-7.5-.071-.412-.835-.75-1.699-.75-1.425 0-1.424.148.009 1.581.869.869 1.274 2.077.899 2.683-.429.694-.948.385-1.399-.83-.635-1.712-.847-1.589-1.838 1.066-5.413 14.498-5.584 14.835-5.913 11.597-.172-1.694.391-4.084 1.25-5.311 1.724-2.462 2.155-7.27.563-6.286-.55.34-1.052 1.829-1.116 3.309-.076 1.771-.275 2.078-.582.898-.256-.986-1.08-2.979-1.832-4.428-.752-1.45-1.132-3.017-.844-3.482.287-.466-.058-.723-.768-.572-1.669.355-5.193-6.4-3.791-7.266.559-.346.842-2.211.629-4.145-.409-3.713 1.564-7.82 2.798-5.823.441.713 1.505.158 2.975-1.554 1.671-1.943 2.435-2.295 2.831-1.3.342.86.573.625.627-.637.071-1.659.34-1.511 1.579.864.822 1.576 1.494 3.713 1.494 4.75 0 3.724 1.891 1.793 2.551-2.604.385-2.567 1.096-4.228 1.662-3.879.544.337.725 1.929.403 3.54-.433 2.165-.264 2.735.649 2.187.843-.506.808-.215-.11.916-.739.913-1.112 2.236-.828 2.942.306.763.547.523.594-.588.065-1.55.338-1.658 1.579-.628 1.26 1.046 1.511.865 1.57-1.128.066-2.218.126-2.242.93-.372.473 1.1.947 1.438 1.055.75.107-.687.308-1.7.445-2.25s.306-1.727.375-2.617c.085-1.104.759-1.45 2.125-1.093 1.328.347 2 .03 2-.943 0-.806.45-1.187 1-.847.55.34 1-.309 1-1.441 0-1.132.477-2.059 1.059-2.059.697 0 1.054-4.873 1.043-14.25-.009-7.837.24-37.987.553-67L257.226 0H0l.015 45.25m.446.75c0 25.025.129 35.263.288 22.75.159-12.512.159-32.987 0-45.5C.59 10.738.461 20.975.461 46m72.697 27c0 1.375.227 1.938.504 1.25.278-.687.278-1.812 0-2.5-.277-.687-.504-.125-.504 1.25m7.301 2.067c-.363.586-.445 1.281-.183 1.543s.743-.218 1.069-1.067c.676-1.762.1-2.072-.886-.476m-34.38 10.516c.048 1.165.285 1.402.604.605.289-.722.253-1.585-.079-1.917-.332-.332-.568.258-.525 1.312m-34.368 3.416c-.288 1.099-.115 2.251.383 2.559.498.308.906-.592.906-1.999 0-3.064-.57-3.312-1.289-.56M100 92.059c0 .582.45.781 1 .441s1-.816 1-1.059-.45-.441-1-.441-1 .477-1 1.059m-7.921 1.524c.048 1.165.285 1.402.604.605.289-.722.253-1.585-.079-1.917-.332-.332-.568.258-.525 1.312M255.158 137c0 1.375.227 1.938.504 1.25.278-.687.278-1.812 0-2.5-.277-.687-.504-.125-.504 1.25m-14.729 14.927c0 1.059.353 1.708.785 1.441.432-.268.786-1.134.786-1.927 0-.793-.354-1.441-.786-1.441-.432 0-.785.867-.785 1.927M235.71 156c-.287 1.1-.115 2 .384 2 .498 0 .906-.9.906-2s-.173-2-.383-2c-.211 0-.619.9-.907 2m-162.552 7c0 1.375.227 1.938.504 1.25.278-.687.278-1.812 0-2.5-.277-.687-.504-.125-.504 1.25m156.921-.417c.048 1.165.285 1.402.604.605.289-.722.253-1.585-.079-1.917-.332-.332-.568.258-.525 1.312m-117.829 4.079c-.687.278-1.25 1.619-1.25 2.98 0 1.399-.436 2.207-1.002 1.857-2.194-1.356 3.6 7.291 7.874 11.751 4.816 5.024 6.385 5.87 5.566 3-.275-.963.033-.738.684.5.714 1.358 2.114 2.25 3.531 2.25 1.897 0 2.344-.527 2.332-2.75-.012-2.143-.23-2.419-.985-1.25-.771 1.193-.973 1.217-.985.116-.008-.761 1.223-2.503 2.735-3.871 1.619-1.464 2.051-2.253 1.051-1.917-1.917.643-3.225-2.059-2.24-4.626.334-.869.132-2.395-.447-3.391-.944-1.623-1.056-1.636-1.084-.12-.016.93-.55 2.012-1.185 2.404-.67.415-.884.277-.511-.327.354-.573-.026-1.597-.845-2.277-1.215-1.008-1.489-.937-1.489.387 0 .892-.477 1.622-1.059 1.622s-.812-.399-.511-.887c.301-.487-.078-1.406-.844-2.041-1.063-.883-1.514-.851-1.91.136-.285.711-.582-.058-.66-1.708-.133-2.8-.203-2.851-1.041-.767-.599 1.489-1.43 2.029-2.494 1.621-.878-.337-1.359-1.229-1.07-1.983.542-1.411.011-1.585-2.161-.709M63 170.833c0 2.292.422 4.167.937 4.167.519 0 .679-1.673.359-3.75-.802-5.193-1.296-5.352-1.296-.417M66.5 168c-.34.55-.141 1 .441 1S68 168.55 68 168s-.198-1-.441-1-.719.45-1.059 1M.46 212c0 24.475.13 34.488.289 22.25.159-12.237.159-32.262 0-44.5C.59 177.513.46 187.525.46 212m50.619-42.417c.048 1.165.285 1.402.604.605.289-.722.253-1.585-.079-1.917-.332-.332-.568.258-.525 1.312m39.43-.434c.345.907.147 1.946-.441 2.309-1.34.828-1.407 3.542-.087 3.542 1.558 0 2.418-5.002 1.087-6.323-.912-.905-1.041-.796-.559.472m-32.086 2.04c.796 3.661-.997 4.489-2.309 1.067l-1.058-2.756.385 3.25c.211 1.787-.012 3.25-.496 3.25-1.72 0 .759 4.346 2.939 5.153 1.279.473 1.983.441 1.663-.076-.304-.493-.248-1.692.125-2.664.631-1.645.73-1.634 1.433.16.691 1.765.76 1.738.825-.323.038-1.238-.38-2.25-.93-2.25s-1.007-1.012-1.015-2.25c-.009-1.238-.495-2.925-1.081-3.75-.824-1.16-.933-.891-.481 1.189M72 174.441c0 2.993.45 5.719 1 6.059.625.386 1-1.656 1-5.441 0-3.373-.443-6.059-1-6.059-.55 0-1 2.448-1 5.441m-25-2.5c0 1.068-.521 2.263-1.158 2.656-.801.496-.974.016-.561-1.563l.596-2.279-1.938 2.08c-1.418 1.522-1.828 3.097-1.528 5.872.404 3.732.391 3.749-.81 1.019-.671-1.525-1.629-2.425-2.128-2-.499.426-.322.008.393-.928.714-.936 1.089-2.511.833-3.5-.367-1.412-.492-1.315-.583.452-.064 1.238-.614 2.25-1.223 2.25-.636 0-.826-.732-.447-1.72.363-.945.322-1.382-.09-.969-1.23 1.23-1.549 12.951-.373 13.679.585.361 1.261 1.682 1.503 2.936.241 1.253.993 2.947 1.672 3.764 1.063 1.281 1.351 1.166 2.089-.828.659-1.783 1.05-1.999 1.703-.943.668 1.081.95.97 1.333-.524.267-1.042.53.355.586 3.105.069 3.441-.19 4.541-.83 3.529-.512-.809-1.141-1.259-1.399-1-.257.259.393 1.533 1.446 2.832 1.904 2.348 1.914 2.275 1.914-13.75 0-8.861-.225-16.111-.5-16.111s-.5.873-.5 1.941m19 1c0 1.682.45 3.059 1 3.059s1-1.098 1-2.441c0-1.343-.45-2.719-1-3.059-.583-.361-1 .656-1 2.441m69.757-.682c-.385.967-.328 2.767.127 4 .456 1.232.612 2.916.347 3.741-.322 1.004-.148 1.17.528.5.587-.582.735-2.88.354-5.5-.458-3.146-.866-3.971-1.356-2.741m-85.205.657c-.616.997-.03 6.25 1.18 10.576.465 1.666.314 1.791-.921.766-1.187-.985-1.478-.943-1.478.214 0 .792.375 1.208.834.925.458-.283.833.048.833.735 0 .721.558.488 1.318-.552.95-1.3 1.11-3.328.573-7.284-.796-5.866-1.309-7.046-2.339-5.38M75.131 177c-.062 3.431.224 4.988.762 4.139.474-.748.64-2.211.368-3.25-.272-1.039.008-1.889.622-1.889.615 0 1.117-.477 1.117-1.059s-.416-.802-.924-.488c-.509.314-1.131-.222-1.384-1.191-.253-.969-.505.713-.561 3.738M116 173.059c0 .582.45.781 1 .441s1-.816 1-1.059-.45-.441-1-.441-1 .477-1 1.059m127.755 1.441c-.263 1.375-.09 2.5.384 2.5.473 0 .861-1.125.861-2.5s-.173-2.5-.383-2.5c-.211 0-.599 1.125-.862 2.5M30 174.401c0 .528 4.074 8.599 4.341 8.599.161 0 .038-1.87-.274-4.157-.399-2.927-1.085-4.232-2.317-4.411-.962-.14-1.75-.154-1.75-.031M79.158 178c0 1.375.227 1.938.504 1.25.278-.687.278-1.812 0-2.5-.277-.687-.504-.125-.504 1.25m-21.491-.333c-.367.366-.667 1.131-.667 1.7 0 .626.466.567 1.183-.15.651-.651.951-1.416.667-1.7-.284-.285-.817-.217-1.183.15m34.412 1.916c.048 1.165.285 1.402.604.605.289-.722.253-1.585-.079-1.917-.332-.332-.568.258-.525 1.312M39.195 181.5c.02 1.65.244 2.204.498 1.231.254-.973.237-2.323-.037-3-.274-.677-.481.119-.461 1.769m5.884-.917c.048 1.165.285 1.402.604.605.289-.722.253-1.585-.079-1.917-.332-.332-.568.258-.525 1.312m86.901 1.941c-.696.838-1.071 1.718-.835 1.955.237.236.98-.449 1.651-1.524 1.452-2.325.968-2.58-.816-.431m115.215.976c.02 1.65.244 2.204.498 1.231.254-.973.237-2.323-.037-3-.274-.677-.481.119-.461 1.769m-111.125.316c-.038 1.273-.564 3.238-1.167 4.365-.843 1.575-.807 1.954.154 1.633 1.798-.599 2.802-3.979 1.876-6.314-.741-1.871-.797-1.851-.863.316m-94.038 1.993c-.018.72-.392 1.087-.832.815-.44-.272-.8.601-.8 1.941 0 1.339.36 2.435.8 2.435.44 0 .807-.787.815-1.75.012-1.363.206-1.45.875-.393.496.782 1.111.95 1.453.397.326-.528-.053-1.813-.843-2.857-.9-1.189-1.448-1.409-1.468-.588m89.313 1.734c-.326.849-.311 1.824.031 2.167.343.343.624-.089.624-.96s.563-1.81 1.25-2.088c.979-.395.972-.521-.031-.583-.705-.043-1.548.615-1.874 1.464m-104.266 1.04c.048 1.165.285 1.402.604.605.289-.722.253-1.585-.079-1.917-.332-.332-.568.258-.525 1.312m214.579 1.866c-.372.969-.076 1.265.893.893.797-.306 1.449-.958 1.449-1.449 0-1.438-1.735-1.026-2.342.556m-205.424 4.164c.655 1.438 1.362 2.098 1.573 1.467.531-1.594-.538-4.08-1.754-4.08-.634 0-.567.973.181 2.613m216.33-.32c.376.986.935 1.541 1.243 1.233.308-.307.001-1.114-.683-1.793-.988-.98-1.102-.865-.56.56M44.5 195c.34.55.816 1 1.059 1s.441-.45.441-1-.477-1-1.059-1-.781.45-.441 1m11.579.583c.048 1.165.285 1.402.604.605.289-.722.253-1.585-.079-1.917-.332-.332-.568.258-.525 1.312M38.638 199.5c-.316.825-.139 1.5.393 1.5.533 0 .969-.675.969-1.5s-.177-1.5-.393-1.5c-.216 0-.652.675-.969 1.5m12.441 1.083c.048 1.165.285 1.402.604.605.289-.722.253-1.585-.079-1.917-.332-.332-.568.258-.525 1.312m34.632 1.416c-.288 1.099-.115 2.251.383 2.559.498.308.906-.592.906-1.999 0-3.064-.57-3.312-1.289-.56m25.981.932c.295 1.128 1.077 1.711 1.881 1.403 1.162-.446 1.158-.746-.027-1.931-1.915-1.914-2.452-1.761-1.854.528M49 202.857c0 .437 1.125 1.851 2.5 3.143 1.375 1.292 2.5 1.82 2.5 1.174 0-.646-.45-1.174-1-1.174s-1-.627-1-1.393-.675-1.652-1.5-1.969c-.825-.316-1.5-.218-1.5.219M79 204c0 1.1.45 2 1 2s1-.9 1-2-.45-2-1-2-1 .9-1 2m17.637-.496c-.336.875-1.984 2.07-3.663 2.655-2.806.978-2.908 1.169-1.274 2.364.978.715 2.124 1.086 2.546.825 1.13-.699 3.977-6.459 3.451-6.984-.247-.248-.725.265-1.06 1.14m-19.558 3.079c.048 1.165.285 1.402.604.605.289-.722.253-1.585-.079-1.917-.332-.332-.568.258-.525 1.312m40.393.462c-.329.533.33 2.273 1.465 3.866 1.135 1.594 2.108 3.953 2.163 5.243l.099 2.346.801-2.5c1.581-4.937 1.135-7.617-1.464-8.802-1.559-.71-2.685-.767-3.064-.153M111 208c0 .55.477 1 1.059 1s.781-.45.441-1-.816-1-1.059-1-.441.45-.441 1m-53.98 5.524c.696.838 1.471 1.318 1.723 1.067.693-.694-.716-2.591-1.924-2.591-.664 0-.588.574.201 1.524M60 216c0 .55.477 1 1.059 1s.781-.45.441-1-.816-1-1.059-1-.441.45-.441 1m59.079 1.583c.048 1.165.285 1.402.604.605.289-.722.253-1.585-.079-1.917-.332-.332-.568.258-.525 1.312M68 221.736c0 .974 4.035 3.562 4.629 2.969.238-.239-.706-1.18-2.098-2.093-1.392-.912-2.531-1.306-2.531-.876" fill="#1976D2" fill-rule="evenodd"/><path fill-opacity=".108" d="M.053 23.298c.082 12.817.384 24.537.672 26.045.528 2.763 2.274 3.161 3.092.705.296-.887-.015-1.066-.937-.54-1.115.634-1.14.526-.13-.561.687-.741 1.279-3.619 1.313-6.397.055-4.362.198-4.713 1.052-2.574.543 1.363.722 3.538.396 4.834-.346 1.383-.196 2.114.364 1.768.525-.325 1.144-.025 1.377.666.332.986.778.963 2.074-.107.909-.75 1.362-1.832 1.008-2.405-.364-.59-.162-.744.468-.354.611.377.871 1.459.579 2.404-.484 1.564-.431 1.561.598-.04.621-.967.873-2.173.559-2.681-.314-.507-.102-1.212.47-1.566.573-.354.977-.273.898.181-.078.453-.058 2.399.046 4.324.153 2.845.339 3.126.993 1.5.442-1.1.577-3.462.299-5.25-.565-3.633-.115-3.978 2.185-1.679 1.428 1.429 1.579 1.27 1.661-1.75l.09-3.321 1.06 3.5c1.036 3.424 1.075 3.446 1.81 1 .615-2.049.769-1.71.85 1.872.089 3.888.277 4.226 1.698 3.047 1.143-.949 1.437-2.314 1.035-4.795-.526-3.237-.467-3.332.869-1.425.788 1.125 1.242 3.034 1.009 4.242-.271 1.409.009 2.048.783 1.783.734-.251 1.097-1.941.926-4.318-.227-3.171-.074-3.573.812-2.135.6.974 1.513 1.51 2.029 1.191.517-.319.939.647.939 2.146 0 1.499.315 2.411.699 2.026.385-.384.653-2.822.597-5.417l-.103-4.717.762 4c.418 2.2.845 3.325.948 2.5.103-.825.774-.15 1.491 1.5.717 1.65 1.116 3.517.886 4.149-.229.632-.032 1.386.438 1.676.828.513 1.242-1.446 1.284-6.075.011-1.238.428-2.25.926-2.25.775 0 1.186 3.949 1.181 11.363-.001 1.025.249 1.612.555 1.306.307-.306.635-3.71.731-7.564.095-3.854.421-7.254.723-7.556.571-.571.64-.203.982 5.237.184 2.935 1.9 5.89 1.9 3.273 0-.582.547-1.059 1.215-1.059s2.13-.918 3.25-2.041C62.514 31.878 83.459 20.073 100 15.604c17.351-4.688 44.26-4.784 60.725-.215 22.297 6.186 43.476 20.751 56.879 39.117C224.107 63.416 232 76.53 232 78.424c0 .802.389 1.699.865 1.993.476.294 2.323 5.014 4.104 10.488 3.485 10.712 3.981 11.093 8.79 6.763 1.434-1.29 2.049-2.698 1.683-3.851-.553-1.743.542-2.193 5.143-2.113.631.011.877-1.072.589-2.593-.444-2.337-.322-2.467 1.165-1.239 1.529 1.264 1.662.551 1.672-9 .006-5.704.3-25.78.654-44.612l.642-34.239L128.606.008-.095-.005l.148 23.303M.31 23C.252 35.375.496 44.15.852 42.5c.357-1.65.404-11.775.106-22.5L.415.5.31 23M176.195 4.5c.02 1.65.244 2.204.498 1.231.254-.973.237-2.323-.037-3-.274-.677-.481.119-.461 1.769M201.5 8c.34.55.816 1 1.059 1s.441-.45.441-1-.477-1-1.059-1-.781.45-.441 1m12.5 3.059c0 .582.45.781 1 .441s1-.816 1-1.059-.45-.441-1-.441-1 .477-1 1.059m-8.906.941c-.09 2.119 1.646 4.593 2.573 3.667.426-.427.293-1.089-.296-1.471-.589-.383-1.328-1.371-1.642-2.196-.508-1.333-.578-1.333-.635 0m-92.449 2.099C97.716 16.28 80.261 23.161 68.5 31.501c-7.229 5.127-11.662 9.428-10.932 10.608.295.478-.09.628-.856.334-2.161-.829-4.088 2.077-2.821 4.255.808 1.389 1.059 1.458 1.094.302.039-1.29.173-1.299.957-.06.739 1.168 1.591 1.232 4.497.34 3.325-1.02 3.798-.889 6.492 1.805 1.944 1.944 3.073 2.493 3.413 1.66.279-.685.498-.12.487 1.255-.012 1.375.405 4.525.926 7 .753 3.576 1.113 4.113 1.753 2.618.476-1.113.332-2.641-.352-3.737-2.069-3.313-1.38-4.409 2.842-4.52 4.188-.11 4.559.206 3.049 2.594-.594.938-.452 2.358.399 4 .726 1.4 2.134 4.204 3.129 6.231.995 2.027 2.268 3.602 2.829 3.5.562-.102 1.468.796 2.015 1.996.547 1.2 2.901 3.387 5.231 4.86 2.33 1.473 5.016 3.539 5.969 4.591.952 1.052 4.234 2.641 7.293 3.53 3.059.89 6.242 1.977 7.074 2.417 1.804.954 7.203 2.316 8.262 2.084.412-.09.75.349.75.976s.782 1.711 1.737 2.41c1.5 1.097 1.899.908 2.93-1.39 1.182-2.634 1.188-2.628.635.608-.433 2.532-.245 3.147.836 2.733.767-.295 2.032.347 2.809 1.426 1.32 1.831 1.507 1.849 2.808.267.766-.932 1.108-1.131.76-.444-.363.717-.014 1.25.819 1.25.799 0 1.711.675 2.028 1.5.605 1.578-.189 1.721-10.862 1.958-5.528.123-13.845-.761-23-2.444-9.572-1.76-19.19-2.102-20.269-.721-1.432 1.835-2.152 5.638-1.181 6.238.475.293.581 1.267.236 2.165-.418 1.091-.238 1.392.544.909.644-.398 1.17-.246 1.17.336 0 2.126 1.602.992 1.683-1.191.12-3.245.834-6.6 1.559-7.325.344-.345.476.992.292 2.972-.184 1.979.029 3.373.473 3.099.443-.274.584.514.313 1.753-.396 1.808-.283 1.956.578.751.858-1.202 1.077-.904 1.1 1.5.038 3.907 1.021 7.5 2.052 7.5.45 0 .623-1.075.384-2.389-.327-1.806-.006-2.355 1.317-2.25.962.077 2.055.814 2.429 1.639.434.959.705.439.75-1.441.067-2.804.138-2.851 1.538-1 1.406 1.859 1.47 1.825 1.5-.809.018-1.513.509-2.75 1.091-2.75s.804.412.493.916c-.773 1.251 1.152 6.084 2.423 6.084.564 0 1.025-.9 1.025-2s.45-2 1-2 1.007.787 1.015 1.75c.013 1.496.157 1.532.985.25.826-1.277.972-1.237.985.276.014 1.65.227 1.666 3.008.228 5.63-2.912 24.99.683 26.625 4.943.241.628-.215 2.994-1.014 5.257-.798 2.263-1.148 4.453-.778 4.866.371.413.131.439-.532.058-.708-.406-1.891.354-2.865 1.84-.912 1.393-2.182 2.532-2.822 2.532-1.406 0-5.175 4.167-4.814 5.324.141.454-.13.586-.603.294-1.246-.771-11.65 7.303-11.909 9.243-.121.901-.509 2.868-.863 4.371-.954 4.047.209 7.31 3.84 10.774 3.219 3.07 3.303 3.088 11.992 2.612 5.076-.278 8.75-.089 8.75.451 0 .512.675.931 1.5.931s1.5.702 1.5 1.559c0 .936.468 1.27 1.17.836.76-.47.969-.199.595.774-.342.892-.006 1.498.83 1.498.773 0 1.405-.361 1.405-.802 0-1.89 3.007.551 3.07 2.492.069 2.084.094 2.088.93.143.752-1.749.868-1.641.93.857.051 2.084.467 2.705 1.536 2.294 1.172-.449 1.34.081.838 2.643-1.476 7.538-7.787 11.706-17.722 11.706-3.656 0-8.141-.625-9.968-1.388-3.249-1.357-8.276-7.001-15.929-17.883-4.143-5.893-7.641-9.823-12.235-13.75-3.151-2.694-12.251-8.979-13-8.979-.248 0-.498 1.463-.557 3.25-.099 3.016-.186 2.927-1.198-1.25l-1.091-4.5-.66 4c-.363 2.2-.724 3.438-.802 2.75-.078-.687-.81-1.25-1.627-1.25-.921 0-.195 1.234 1.914 3.25 11.058 10.573 21.18 23.884 23.448 30.837.644 1.973 2.063 4.545 3.153 5.715 1.091 1.171 3.132 3.831 4.537 5.913 4.228 6.267 9.965 10.084 19.346 12.871 10.685 3.175 10.863 3.239 9.337 3.335-.687.043-1.25.952-1.25 2.02 0 2.082-1.711 3.681-2.788 2.605-.36-.36.008-1.073.817-1.585.945-.598 1.035-.936.252-.946-.726-.009-.97-.721-.602-1.765.426-1.211.288-1.442-.447-.75-.585.55-1.213 2.125-1.398 3.5-.221 1.65-.926 2.453-2.074 2.363-.956-.075-1.492.262-1.19.75.301.488.103.887-.441.887-.545 0-1.185 1.013-1.423 2.25-.31 1.609-.506 1.253-.688-1.25-.14-1.925-.182-4.062-.093-4.75.09-.687-.307-1.25-.881-1.25-.574 0-1.076.787-1.114 1.75-.06 1.496-.195 1.46-.93-.25-.64-1.489-.881-.723-.943 3-.111 6.578-1.041 10.133-2.18 8.335-.649-1.023-.85-.926-.862.415-.008.963.435 1.75.985 1.75s1 .499 1 1.108c0 .683-.96.868-2.5.481-1.509-.378-2.5-.2-2.5.451 0 .593-.457.795-1.016.45-.559-.346-.746-1.067-.414-1.603.331-.536.151-1.519-.401-2.184-.552-.665-.903-2.67-.779-4.456.123-1.786-.186-3.247-.688-3.247s-.74 1.8-.531 4c.21 2.2.006 4-.454 4-.459 0-.557.45-.217 1 .34.55.179 1-.358 1-.536 0-1.202-.563-1.48-1.25-.284-.703-.539-.431-.583.622-.061 1.445-.384 1.62-1.412.766-1.002-.831-1.334-.763-1.334.272 0 .849.894 1.279 2.334 1.121 1.826-.2 2.333.231 2.333 1.984 0 1.996 1.654 4.361 3 4.288.275-.015 4.784.294 10.021.687 15.913 1.193 35.763-2.198 49.604-8.474 8.6-3.899 21.608-12.51 28.642-18.96 5.434-4.983 17.898-20.62 20.733-26.014 1.529-2.908 1.563-7.879.063-9.379-1.469-1.469-1.337-6.386.187-7.001.839-.338.87-.53.094-.583-.655-.045-.929-.949-.632-2.084.288-1.103.013-2.621-.611-3.374-.625-.752-.877-2.041-.561-2.865.324-.845-.097-1.756-.966-2.089-.847-.325-1.3-1.218-1.006-1.984.362-.943-1.123-2.106-4.597-3.6-4.74-2.039-5.314-2.088-7.516-.645-1.312.859-2.554 1.562-2.761 1.562-.207 0-.328-2.327-.269-5.172.126-6.109 1.707-7.201 4.775-3.301 2.78 3.535 8.756 6.163 9.879 4.345.434-.702.492-1.748.13-2.324-1.012-1.607-1.093-9.594-.091-8.975.485.3.889-.494.897-1.764.011-1.647.258-1.926.862-.974.638 1.006.986.799 1.416-.847.314-1.199.346-2.766.071-3.481-.745-1.943-5.662-2.645-6.941-.99-.858 1.109-1.441.569-2.862-2.651-2.292-5.194-.916-6.851 2.816-3.392 4.723 4.376 7.85 2.867 7.2-3.474-.25-2.442-.447-2.5-8.418-2.5-7.77 0-8.161-.107-8.16-2.225.001-1.916.399-2.145 2.87-1.651 2.182.436 3.41.011 5.13-1.775l2.261-2.349-.685 2.893-.685 2.894 4.805-.735c2.643-.404 5.397-.769 6.122-.81.836-.048 1.112-.835.757-2.159-1.843-6.872-1.858-7.262-.166-4.219.875 1.576 1.592 3.488 1.592 4.25s.338 1.386.75 1.387c.412 0 .599-2.175.415-4.834-.261-3.765-.006-4.834 1.154-4.834.831 0 1.264.59.979 1.334-.282.733-.014 1.333.595 1.333s1.107-1.602 1.107-3.559c0-3.472 1.819-4.106 1.927-.671.03.951.481 3.98 1.003 6.73.847 4.468.908 4.096.57-3.5-.333-7.481-2.549-17.12-5.403-23.5-.493-1.1-1.475-3.533-2.183-5.407-2.521-6.673-16.139-26-21.325-30.265-1.118-.919-2.453-1.412-2.966-1.095-.512.317-.636.096-.273-.49.858-1.389-6.789-8.079-16.85-14.738-7.974-5.278-18.956-10.488-27.5-13.044-13.39-4.007-34.086-5.446-48.355-3.362m72.434 1.484c.048 1.165.285 1.402.604.605.289-.722.253-1.585-.079-1.917-.332-.332-.568.258-.525 1.312m17.116 6.917c.02 1.65.244 2.204.498 1.231.254-.973.237-2.323-.037-3-.274-.677-.481.119-.461 1.769m-77.755 2c.851 1.65 1.55 4.012 1.554 5.25.003 1.238.512 2.25 1.131 2.25 1.748 0 .146-6.178-2.203-8.497l-2.03-2.003 1.548 3m87.639.083c.048 1.165.285 1.402.604.605.289-.722.253-1.585-.079-1.917-.332-.332-.568.258-.525 1.312m-75.009.832c-.86 1.037-1.294 12.552-.474 12.582.053.001 1.521-.707 3.261-1.575 3.581-1.787 3.29-3.748-.418-2.817-2.095.526-2.439.262-2.439-1.874 0-1.367.675-3.046 1.5-3.731 1.628-1.351 2.041-4 .622-4-.482 0-1.406.637-2.052 1.415m29.93 2.85c0 1.245-.913 3.967-2.028 6.049-1.15 2.146-1.928 5.271-1.797 7.221.229 3.392.284 3.431 4.189 2.94 3.96-.497 6.636-1.948 6.636-3.597 0-1.447-3.661-.991-5 .622-1.639 1.975-4 1.919-4-.096 0-.877.834-2.79 1.854-4.25 2.244-3.212 3.362-7.428 2.538-9.575-.898-2.341-2.392-1.913-2.392.686m-77.25.817c.688.725 1.25 2.833 1.25 4.684C91 38.759 92.57 41 96.067 41c3.046 0 3.276-.282 4.408-5.406.604-2.735.741-2.806 2.333-1.202 1.59 1.602 1.533 1.988-.945 6.406-2.322 4.141-3.013 4.684-5.791 4.55-2.431-.117-2.915.137-2.109 1.107.574.692.761 2.673.416 4.402-.503 2.512-.296 3.143 1.027 3.143.911 0 1.916-.675 2.232-1.5.317-.825 1.118-1.5 1.781-1.5.663 0 2.203-1.35 3.423-3 1.22-1.65 2.879-3 3.688-3 2.189 0 1.777-2.107-.53-2.71-2.11-.552-2.689-2.746-1-3.79 1.776-1.098 1.067-3.537-1.75-6.016-3.472-3.056-5.626-3.244-4.727-.412C99.54 35.276 98.231 39 96.088 39 93.987 39 93 37.132 93 33.159c0-1.708-.815-3.17-2.25-4.036-1.768-1.067-1.982-1.076-1-.041M234.195 31.5c.02 1.65.244 2.204.498 1.231.254-.973.237-2.323-.037-3-.274-.677-.481.119-.461 1.769m-32.631.207c-.542 1.425-.428 1.54.56.56.684-.679.991-1.486.683-1.793-.308-.308-.867.247-1.243 1.233M16 36.441c0 .793.408 1.693.907 2.001.498.309.671-.34.383-1.441-.611-2.335-1.29-2.63-1.29-.56m15.333 1.103c0 .801.375 1.456.834 1.456.458 0 .833-.423.833-.941s-.375-1.173-.833-1.456c-.459-.283-.834.14-.834.941m202.746 1.039c.048 1.165.285 1.402.604.605.289-.722.253-1.585-.079-1.917-.332-.332-.568.258-.525 1.312M51 49.167c0 3.685.664 3.473 1.373-.44.272-1.5.074-2.727-.439-2.727-.514 0-.934 1.425-.934 3.167M156.128 47.9c-.754.478-1.167 1.482-.917 2.232.316.949.819.681 1.657-.885 1.329-2.484 1.259-2.613-.74-1.347m37.482 3.35C191.366 56.396 183.594 64 180.578 64c-3.567 0-3.227 1.698.672 3.352 1.787.758 4.516 2.817 6.062 4.574 3.439 3.908 5.782 3.652 6.924-.757.837-3.229.98-3.308 4.813-2.661 4.179.706 5.626-.842 1.894-2.026-2.562-.813-2.167-3.82.568-4.328 2.813-.522 4.752-2.291 3.684-3.359-1.387-1.387-5.831 1.111-7.158 4.022-.65 1.428-2.05 3.204-3.11 3.947-1.06.742-1.927 2.449-1.927 3.793 0 3.371-2.277 3.091-5.441-.669-2.945-3.5-3.093-3.124 4.191-10.669 3.307-3.426 4.25-5.158 4.25-7.811 0-4.261-.584-4.3-2.39-.158M6.729 49.604C6.328 50.005 6 51.023 6 51.867c0 1.125.296 1.237 1.112.42.612-.611.941-1.63.73-2.262-.211-.633-.712-.822-1.113-.421m2.286.107c.029 1.497 1.736 3.5 2.255 2.646.286-.471-.108-1.437-.875-2.146-.767-.71-1.388-.935-1.38-.5M23 52c0 1.1.173 2 .383 2 .211 0 .619-.9.907-2 .287-1.1.115-2-.384-2-.498 0-.906.9-.906 2m38-1.115c0 .487 1.125 1.622 2.5 2.523 2.731 1.789 3.043 1.475 1.465-1.474C63.928 49.996 61 49.222 61 50.885M13.755 53.5c.263 1.375.651 2.5.862 2.5.21 0 .383-1.125.383-2.5s-.388-2.5-.861-2.5c-.474 0-.647 1.125-.384 2.5M1.079 56.583c.048 1.165.285 1.402.604.605.289-.722.253-1.585-.079-1.917-.332-.332-.568.258-.525 1.312m110.4-.193C105.614 57.816 93 63.75 93 65.083c0 1.43 1.511 1.087 4.115-.933 2.682-2.08 14.911-7.15 17.247-7.15.836 0 1.798-.45 2.138-1 .34-.55.479-.962.309-.915-.17.047-2.569.634-5.33 1.305m62.577 15.149c6.113 4.506 11.142 11.056 17.629 22.961 4.176 7.663 4.301 6.399.177-1.779C186.71 82.506 175.161 69 171.578 69c-.532 0 .583 1.142 2.478 2.539m47.036 7.85c-.634.764-3.086 1.876-5.448 2.471-3.071.773-4.633 1.821-5.478 3.675-1.265 2.775-3.454 2.727-7.639-.17-2.755-1.907-3.528-1.713-3.521.885.004 1.449 1.072 2.856 3 3.953 2.958 1.683 4.022 5.044 1.994 6.297-3.122 1.929.917 7.236 4.47 5.873 2.279-.874 1.245-2.922-1.33-2.635-2.698.3-2.784-1.855-.14-3.506 1.1-.687 2-2.145 2-3.24 0-2.216 2.037-2.578 5.144-.915 2.555 1.368 5.006.477 4.232-1.539-.37-.966-1.852-1.538-3.983-1.538-1.866 0-3.393-.36-3.393-.8 0-1.613 2.468-3.2 4.977-3.2 3.223 0 6.607-2.303 7.305-4.969.612-2.34-.508-2.668-2.19-.642m-5.013 20.194c.048 1.165.285 1.402.604.605.289-.722.253-1.585-.079-1.917-.332-.332-.568.258-.525 1.312m10.734 3.1c.721.289 1.584.253 1.916-.079.332-.332-.258-.568-1.312-.525-1.165.048-1.402.285-.604.604m-133.681 4.036c-.102 3.27.188 4.096 1.291 3.672 1.913-.734 2.59-2.759 1.5-4.482-.67-1.058-.929-.786-1.039 1.091-.118 2.001-.294 1.801-.884-1l-.737-3.5-.131 4.219M198.158 114c0 1.375.227 1.938.504 1.25.278-.687.278-1.812 0-2.5-.277-.687-.504-.125-.504 1.25M99 114c0 .55.45 1 1 1s1-.45 1-1-.45-1-1-1-1 .45-1 1m136.771 6.766c-.254.971-.113 2.659.314 3.75.59 1.511.791 1.09.845-1.766.075-4.018-.41-4.848-1.159-1.984m-6.692.817c.048 1.165.285 1.402.604.605.289-.722.253-1.585-.079-1.917-.332-.332-.568.258-.525 1.312m-2 1c.048 1.165.285 1.402.604.605.289-.722.253-1.585-.079-1.917-.332-.332-.568.258-.525 1.312m5 1c.048 1.165.285 1.402.604.605.289-.722.253-1.585-.079-1.917-.332-.332-.568.258-.525 1.312m-32.793 3.917c.008 2.75.202 3.756.432 2.236.229-1.52.223-3.77-.014-5-.237-1.23-.425.014-.418 2.764m-43.822 2.873c-2.755 1.856-5.657 4.154-6.449 5.109-1.27 1.53-1.215 1.898.464 3.126 1.047.766 2.444 1.392 3.105 1.392s1.459.67 1.773 1.489c.435 1.132 1.155 1.267 3.004.564 1.339-.509 2.676-.683 2.972-.387.847.847 1.958-6.464 1.26-8.285-.345-.899-.057-2.339.64-3.2 1.049-1.296 1.023-1.418-.153-.709-1.065.642-1.26.44-.781-.808.925-2.411-.209-2.079-5.835 1.709m71.174-1.873c-.316.825-.139 1.5.393 1.5.533 0 .969-.675.969-1.5s-.177-1.5-.393-1.5c-.216 0-.652.675-.969 1.5m-62.559 9.083c.048 1.165.285 1.402.604.605.289-.722.253-1.585-.079-1.917-.332-.332-.568.258-.525 1.312m34.079.417c0 1.375.227 1.938.504 1.25.278-.687.278-1.812 0-2.5-.277-.687-.504-.125-.504 1.25m-131.699 5.067c-.363.586-.445 1.281-.183 1.543s.743-.218 1.069-1.067c.676-1.762.1-2.072-.886-.476m130.62.516c.048 1.165.285 1.402.604.605.289-.722.253-1.585-.079-1.917-.332-.332-.568.258-.525 1.312M72.79 146.319c-.244 1.275-.103 3.188.313 4.25.535 1.366.777.688.827-2.319.077-4.664-.448-5.553-1.14-1.931m125.236 20.35c-.542 1.557-1.711 4.181-2.597 5.831l-1.61 3 2.518-2.356c1.385-1.297 2.4-2.872 2.255-3.5-.145-.629-.079-.818.147-.419.226.399.29.849.143 1-.147.151 2.169 2.636 5.146 5.521 5.485 5.315 10.154 7.258 13.714 5.709 1.604-.698 1.583-.798-.242-1.149a267.94 267.94 0 0 1-4.171-.844c-1.194-.253-4.498-2.634-7.342-5.29-3.876-3.62-5.085-5.412-4.829-7.158.499-3.394-1.975-3.667-3.132-.345m-22.462 13.038c-.542 1.425-.428 1.54.56.56.684-.679.991-1.486.683-1.793-.308-.308-.867.247-1.243 1.233m23.074 3.936c.344 1.368 1.592 2.353 3.451 2.725 2.27.454 2.911 1.125 2.911 3.048 0 3.012 1.77 4.347 2.666 2.011.901-2.346-.824-4.738-4.27-5.921-1.593-.547-3.436-1.672-4.096-2.5-1.01-1.268-1.115-1.167-.662.637m23.197 10.107c-3.045 4.437-17.763 19.758-22.437 23.357-15.199 11.704-35.399 20.762-50.056 22.445-3.213.369-6.209.89-6.657 1.158-1.035.62-22.719.495-28.685-.165-2.475-.274-6.843-1.112-9.707-1.864-4.65-1.22-5.253-1.196-5.634.227-.355 1.325-.446 1.298-.543-.158-.141-2.128-3.116-2.366-3.116-.25 0 .825-.502 1.5-1.117 1.5-.624 0-.886-.882-.593-2.001.288-1.101.115-1.75-.383-1.441-.499.308-.907.929-.907 1.379 0 .45-.706 2.508-1.568 4.572-1.112 2.661-1.88 3.443-2.636 2.687-.757-.757-.577-1.558.616-2.751.926-.926 1.375-1.967.999-2.314-.377-.347-.886-.068-1.131.619-.475 1.33-2.362 1.766-2.162.5.466-2.947-.212-3.475-2.179-1.695-1.512 1.369-1.989 2.864-1.791 5.613.149 2.061-.049 4.066-.439 4.456-.39.39-.756-.378-.813-1.707-.309-7.154-.64-9.995-1.235-10.59-.364-.363-.661 1.215-.661 3.506 0 2.292-.368 4.167-.819 4.167-.45 0-1.546 1.463-2.436 3.25l-1.617 3.25-.079-4c-.055-2.752-.358-3.56-.972-2.591-.49.775-.66 2.013-.377 2.75.282.738.046 1.341-.527 1.341-.587 0-.827-1.198-.551-2.75.468-2.625.424-2.66-.977-.761-.807 1.094-1.256 2.331-.997 2.75.258.419-.007.761-.589.761-.602 0-1.059-2.13-1.059-4.941 0-2.718-.45-5.219-1-5.559-.62-.383-1 1.47-1 4.882 0 3.025-.371 5.729-.824 6.009-.453.28-.823-.256-.822-1.191.002-.935-.094-3.275-.211-5.2l-.214-3.5-1.38 2.493c-.759 1.372-1.074 2.722-.701 3 .373.279-.34 1.503-1.585 2.721-2.231 2.183-2.44 2.015-2.661-2.126-.056-1.051-.621-2.087-1.256-2.301-.746-.252-1.069.776-.915 2.912.132 1.815-.098 4.426-.51 5.801-.412 1.375-.795 1.825-.85 1-.09-1.333-.209-1.333-1.071 0-.79 1.222-.972 1.099-.985-.667-.008-1.191.548-2.393 1.235-2.671 1-.403 1-.52 0-.583-.687-.043-1.25-1.006-1.25-2.138s-.45-1.781-1-1.441c-.55.34-1 .141-1-.441S50.45 244 51 244s.986-.787.968-1.75c-.03-1.667-.095-1.667-1.36 0-.731.963-1.596 1.75-1.923 1.75-.326 0-.751-3.037-.943-6.75-.324-6.252-.365-6.092-.546 2.167-.108 4.904-.492 8.62-.855 8.257-.362-.362-.601-3.024-.529-5.916l.129-5.258-1.456 4c-.8 2.2-1.462 4.138-1.47 4.306-.008.168-1.176-.957-2.596-2.5-1.419-1.543-2.233-2.131-1.808-1.306.659 1.278.529 1.302-.875.164-.907-.735-2.118-1.046-2.692-.691-.624.385-1.044-.409-1.044-1.973 0-1.44-.375-2.386-.833-2.103-.459.283-.637 1.853-.397 3.488.322 2.197.844 2.817 1.997 2.374.946-.363 1.306-.186.913.45-.965 1.562-4.66 2.291-4.801.947-.066-.636-.128-2.168-.137-3.406-.017-2.413-1.305-3.059-1.993-1-.23.688-.65.042-.932-1.435-.283-1.477-.14-3.277.319-4 .588-.928.838-.653.849.935.008 1.238.465 2.25 1.015 2.25 1.145 0 1.145-1.425 0-5-.44-1.375-.845-1.911-.9-1.191-.055.72-.55 1.031-1.1.691-.55-.34-1.081-3.404-1.18-6.809-.165-5.66-.213-5.784-.555-1.441-.206 2.613-.808 4.75-1.339 4.75-.53 0-.721-1.238-.424-2.75.535-2.728.53-2.731-.685-.386-1.002 1.935-.961 2.571.229 3.5.8.625 1.54 2.862 1.645 4.971.184 3.673.12 3.756-1.5 1.953-.93-1.036-2.771-1.951-4.09-2.035-1.32-.083-2.895-.69-3.5-1.349-.831-.905-.669-1.046.663-.577 1.449.51 1.724.103 1.542-2.284-.121-1.597-.578-2.684-1.013-2.415-.436.27-.793.013-.793-.569S17.45 225 18 225s.968-1.012.93-2.25c-.067-2.147-.11-2.158-.93-.25l-.859 2-.189-2c-.13-1.382-.403-1.074-.884 1-.837 3.615-.276 5.725 1.287 4.841.63-.357.245.263-.855 1.376-2.394 2.424-2.509 2.363-3.012-1.61-.249-1.966.048-3.113.81-3.122.771-.01.687-.342-.234-.924-1.13-.715-1.18-1.216-.237-2.352.944-1.138.878-1.709-.315-2.699-1.628-1.351-2.048-.128-1.63 4.74.107 1.238-.242 2.25-.775 2.25-.532 0-1.156.787-1.387 1.75-.475 1.987-.436 2.695-.609-11-.061-4.812-.45-8.75-.863-8.75-.414 0-.695 2.301-.623 5.113.071 2.811-.209 7.424-.623 10.25-.726 4.956-.758 4.856-.909-2.863-.143-7.32-.283-7.832-1.647-6.029-.82 1.085-1.26 2.57-.98 3.302.281.732.066 1.056-.477.72-1.333-.823-1.26-6.822.098-8.18.783-.783.776-1.28-.025-1.774-.611-.378-1.005-.317-.874.137.13.453-.28 1.752-.911 2.887-.756 1.36-1.169 9.282-1.211 23.229l-.063 21.166h113.453c79.233 0 113.651-.322 114.111-1.066.362-.587.158-1.567-.454-2.179-.817-.817-1.113-.778-1.113.146 0 .692-.45.981-1 .641-1.511-.934-1.198-2.5.5-2.5.825 0 1.503-.787 1.507-1.75.003-.963.9-3.1 1.993-4.75 2.357-3.56 2.598-5.241.5-3.5-1.295 1.075-1.498.647-1.485-3.128.011-3.191.277-3.967.985-2.872 1.096 1.697.981 2.203 1.484-6.5.159-2.75.34-5.302.402-5.671.063-.368 1.418-.957 3.012-1.307 3.547-.779 4.77-4.094 2.049-5.55-1.085-.581-1.633-1.627-1.303-2.487.314-.817.169-1.485-.321-1.485-1.631 0-4.247-5.506-3.325-6.997 1.009-1.632.406-3.01-1.307-2.988-.916.012-.915.191.006.777.676.429.855 1.314.412 2.032-.616.996-1.063.937-2.07-.277-.986-1.188-1.013-1.874-.113-2.958.814-.981.847-1.611.106-2.069-.585-.362-.806-1.077-.489-1.589.316-.512.211-.935-.234-.939-.445-.004-1.329-1.13-1.965-2.501-.637-1.371-.749-2.241-.25-1.933.498.308.906-.367.906-1.499 0-2.957-.516-2.624-4.165 2.691m-51.348.27c-.333.539.111.98.985.98.875 0 1.85.675 2.166 1.5.317.825.964 1.5 1.438 1.5 1.386 0 .055-2.437-2.049-3.751-1.22-.762-2.158-.846-2.54-.229M168 198.441c0 .857.45 1.559 1 1.559s1-.423 1-.941-.45-1.219-1-1.559c-.55-.34-1 .084-1 .941m65.195 8.059c.02 1.65.244 2.204.498 1.231.254-.973.237-2.323-.037-3-.274-.677-.481.119-.461 1.769m-77.495 1.648c-1.524.853-1.686 1.85-1.12 6.857l.663 5.859-3.696.693c-2.262.425-4.12.27-4.788-.398-1.681-1.681-1.31-7.283.574-8.661 2.624-1.918 1.993-2.349-2.583-1.765-5.11.652-5.711 1.069-3.748 2.599.824.642 1.618 2.96 1.766 5.15.388 5.777 1.846 6.837 7.625 5.542 4.96-1.112 6.607-.768 6.607 1.38 0 .707.834 2.041 1.854 2.964 1.805 1.633 1.806 1.538.033-3.595-1.002-2.9-1.836-7.238-1.854-9.64-.03-3.945.169-4.313 2.059-3.819 2.047.535 2.053.5.261-1.634-1.008-1.199-1.84-2.259-1.851-2.355-.01-.096-.821.274-1.802.823M231 214c0 1.65.372 3 .827 3 .455 0 .628-1.35.386-3s-.614-3-.826-3c-.213 0-.387 1.35-.387 3m-219-.941c0 .582-.354.841-.786.573-.432-.267-.785.382-.785 1.441 0 1.06.578 1.927 1.285 1.927S13 215.875 13 214.5s-.225-2.5-.5-2.5-.5.477-.5 1.059m11.459 5.008c-.363.586-.445 1.281-.183 1.543s.743-.218 1.069-1.067c.676-1.762.1-2.072-.886-.476M230 219.06c0 .399.675.985 1.5 1.302.825.316 1.5.113 1.5-.452 0-.566.563-.704 1.25-.309.688.396.903.338.48-.128-.967-1.063-4.73-1.391-4.73-.413m-134.921 5.523c.048 1.165.285 1.402.604.605.289-.722.253-1.585-.079-1.917-.332-.332-.568.258-.525 1.312M231.5 224c-.34.55-.168 1 .382 1s1.278-.45 1.618-1c.34-.55.168-1-.382-1s-1.278.45-1.618 1M20 225.059c0 .582.45.781 1 .441s1-.816 1-1.059-.45-.441-1-.441-1 .477-1 1.059m12.079 2.524c.048 1.165.285 1.402.604.605.289-.722.253-1.585-.079-1.917-.332-.332-.568.258-.525 1.312m-11.902 1.084c.178.917.897 1.783 1.598 1.925.701.142.839.038.306-.232-.533-.269-.721-1.135-.418-1.925.303-.789.02-1.435-.629-1.435-.65 0-1.035.75-.857 1.667m8.823-.608c0 .582.45.781 1 .441s1-.816 1-1.059-.45-.441-1-.441-1 .477-1 1.059m18.079.524c.048 1.165.285 1.402.604.605.289-.722.253-1.585-.079-1.917-.332-.332-.568.258-.525 1.312m53.935.667c.007.688.308 2.351.668 3.696.596 2.23.714 2.276 1.331.516.796-2.267.135-5.462-1.13-5.462-.485 0-.877.563-.869 1.25m-5.142 0c-.07.137-.233 1.262-.363 2.5-.269 2.564.978 3.029 1.873.698.389-1.014.193-1.304-.563-.836-.774.478-.947.163-.52-.948.5-1.303.135-2.513-.427-1.414m-39.756 5.441c-.064 2.855.23 5.405.652 5.666.423.261.624-1.4.448-3.691-.52-6.729-.975-7.548-1.1-1.975m42.954-2.441c-.038 1.512.38 2.75.93 2.75 1.174 0 1.174-.769 0-3.5-.762-1.772-.867-1.687-.93.75m128.513-1.384c-.431.697-.513 1.537-.183 1.867.895.895 1.871-.421 1.387-1.871-.338-1.016-.574-1.016-1.204.004M9.079 232.583c.048 1.165.285 1.402.604.605.289-.722.253-1.585-.079-1.917-.332-.332-.568.258-.525 1.312m23.734-.9c.721.289 1.584.253 1.916-.079.332-.332-.258-.568-1.312-.525-1.165.048-1.402.285-.604.604m191.892 3.065c-.983 5.733-.984 5.659.093 6.018 1.329.443 1.878-2.634 1.205-6.766l-.569-3.5-.729 4.248m-120.114-.123c-.332.863.624 1.638 2.698 2.183 2.448.645 3.291.512 3.549-.559.446-1.851-.148-2.349-3.198-2.684-1.417-.156-2.763.312-3.049 1.06M19.232 239c0 1.925.206 2.713.457 1.75.252-.963.252-2.537 0-3.5-.251-.963-.457-.175-.457 1.75M37 237.5c0 .825.45 1.5 1 1.5s1-.675 1-1.5-.45-1.5-1-1.5-1 .675-1 1.5m5.325 1.197c.096 1.758.526 2.847.955 2.419.43-.427.351-1.866-.175-3.196-.897-2.272-.945-2.224-.78.777m20.313-1.197c-.316.825-.139 1.5.393 1.5.533 0 .969-.675.969-1.5s-.177-1.5-.393-1.5c-.216 0-.652.675-.969 1.5m10.217 1.5c-.617 3.496-.361 4.84.716 3.763.313-.314.42-2.076.236-3.917l-.334-3.346-.618 3.5m-56.291.293c.376.986.935 1.541 1.243 1.233.308-.307.001-1.114-.683-1.793-.988-.98-1.102-.865-.56.56m42.631 2.207c.02 1.65.244 2.204.498 1.231.254-.973.237-2.323-.037-3-.274-.677-.481.119-.461 1.769m17.921-.191c-.073 1.141-.578 1.548-1.366 1.103-.992-.56-.996-.431-.017.625 1.533 1.653 2.601.728 1.971-1.709-.45-1.743-.477-1.744-.588-.019m166.963.274c.048 1.165.285 1.402.604.605.289-.722.253-1.585-.079-1.917-.332-.332-.568.258-.525 1.312m-206.346 2.541c.679.684 1.486.991 1.793.683.308-.308-.247-.867-1.233-1.243-1.425-.542-1.54-.428-.56.56m186.628.641c-.832.536-.781 1.068.186 1.965 1.07.993 1.297.848 1.177-.75-.082-1.089-.166-1.973-.187-1.965-.02.009-.55.346-1.176.75M48.252 248.5c.011 2.2.216 2.982.455 1.738.239-1.244.23-3.044-.02-4s-.446.062-.435 2.262m-8.246-1.179c-.003 1.002.669 2.497 1.494 3.322 1.891 1.891 1.893 1.339.006-2.279-1.067-2.046-1.495-2.344-1.5-1.043m175.073.262c.048 1.165.285 1.402.604.605.289-.722.253-1.585-.079-1.917-.332-.332-.568.258-.525 1.312m13.666-.333c-.257.688-.112 2.15.323 3.25.645 1.629.804 1.397.862-1.25.073-3.38-.38-4.145-1.185-2m-168.078.417c-.367.366-.667 1.131-.667 1.7 0 .626.466.567 1.183-.15.651-.651.951-1.416.667-1.7-.284-.285-.817-.217-1.183.15M71.5 251c-.34.55-.141 1 .441 1S73 251.55 73 251s-.198-1-.441-1-.719.45-1.059 1m-25.79 2c.288 1.1.696 2 .907 2 .21 0 .383-.9.383-2s-.408-2-.906-2c-.499 0-.671.9-.384 2" fill="#1976D2" fill-rule="evenodd"/><path fill-opacity=".545" d="M113 22.5c0 1.375.388 2.5.861 2.5.474 0 .647-1.125.384-2.5s-.651-2.5-.862-2.5c-.21 0-.383 1.125-.383 2.5m11.5-.5c.34.55.816 1 1.059 1s.441-.45.441-1-.477-1-1.059-1-.781.45-.441 1m-8.305 6.5c.02 1.65.244 2.204.498 1.231.254-.973.237-2.323-.037-3-.274-.677-.481.119-.461 1.769m7.905 1.75c-.062 1.706-.657 2.75-1.569 2.75-.807 0-1.241.593-.962 1.318.278.725-.474 2.563-1.671 4.084-1.708 2.171-2.381 2.479-3.131 1.432-.735-1.026-.836-.957-.438.297.284.897-.073 3.348-.795 5.447-1.025 2.983-1.42 3.391-1.807 1.869-.435-1.71-.509-1.674-.611.303-.064 1.237.334 2.25.884 2.25s1 .62 1 1.378c0 .757.695 1.954 1.546 2.66.85.705 1.276 1.984.947 2.842-.329.857-.291 1.251.086.875.376-.376 1.625-.025 2.775.78 1.15.806 3.866 1.465 6.035 1.465s3.62.324 3.224.72c-.396.396-2.271.587-4.167.424-3.259-.281-3.446-.127-3.446 2.838 0 1.89.408 2.884 1.027 2.502.564-.349.902-1.388.75-2.309-.209-1.264.52-1.7 2.973-1.775 1.787-.055 3.25.282 3.25.75 0 .467-.45.85-1 .85s-.964.787-.921 1.75c.047 1.045.282 1.247.583.5.868-2.151 2.338-1.365 2.338 1.25 0 1.375-.498 2.5-1.107 2.5s-.857.652-.551 1.449c.323.841-.157 1.661-1.143 1.955-2.735.816-13.357.861-17.699.077-6.29-1.137-15.504-6.081-21.448-11.507-5.473-4.997-7.381-5.869-8.583-3.924-.899 1.456 1.88 6.99 4.966 9.889 1.411 1.325 2.567 2.894 2.569 3.485.003.943 9.443 9.066 12.4 10.671 4.134 2.243 5.756 2.905 7.114 2.905.85 0 4.343.949 7.764 2.109 5.988 2.031 13.763 2.218 27.718.669 1.858-.207 2.43.149 2.226 1.385-.196 1.189.263 1.522 1.612 1.169 1.16-.303 2.128.136 2.513 1.139.366.954.215 1.379-.362 1.022-1.704-1.053-1.076.723.719 2.035 1.542 1.128 1.373 1.453-1.75 3.357-1.902 1.159-4.583 2.167-5.958 2.239a61.368 61.368 0 0 0-5 .513c-1.375.21-5.312.394-8.75.409-5.469.024-6.25.265-6.25 1.932 0 1.047.43 2.17.956 2.495.526.325.703 1.252.393 2.059-.716 1.868 1.037 1.912 2.57.065.895-1.077.865-1.509-.127-1.863-.711-.253-.965-.811-.566-1.24 1.266-1.36 3.539 1.444 4.289 5.292.614 3.147.848 3.409 1.534 1.714.493-1.217.838-1.432.881-.55.052 1.082.358 1.162 1.206.314 1.478-1.478 4.334 1.15 3.236 2.978-.475.79-.093.72 1.025-.188 1.553-1.262 1.754-1.262 1.573 0-.501 3.495.13 5.946 1.53 5.946 1.565 0 1.608.08 1.993 3.782.13 1.255.594 2.605 1.031 3 .437.395.493-.12.124-1.143-.514-1.427-.299-1.719.922-1.25.877.336 1.782.611 2.012.611 1.02 0 .22 5.678-1.034 7.331-1.317 1.739-1.41 1.714-1.832-.5-.37-1.942-.469-1.831-.595.669-.198 3.911-2.083 7.12-2.106 3.583-.017-2.744-.82-2.442-1.266.478-.163 1.066-.735 2.09-1.272 2.274-.538.184-1.52.786-2.183 1.336-.664.551-1.676.711-2.25.356-.574-.355-1.044-.142-1.044.473s-.37.89-.822.61c-.452-.279-1.625.431-2.606 1.577-1.451 1.695-1.95 1.826-2.664.699-.51-.806-.884-.912-.893-.253-.008.624-.915 1.369-2.015 1.657-1.197.313-2 1.364-2 2.616 0 2.169-1.564 2.903-2.188 1.029-.202-.605-1.413-.149-2.801 1.056-2.306 1.999-2.487 2.017-3.158.315-.535-1.356-.749-1.432-.859-.306a48.68 48.68 0 0 1-.507 3.422c-.47 2.504 1.911 7.043 4.73 9.017 1.387.972 4.382 1.561 7.933 1.561 5.199 0 5.922-.277 8.147-3.12 2.09-2.67 3.071-3.111 6.815-3.059 3.229.045 4.832.626 6.125 2.224.964 1.19 1.46 2.636 1.103 3.214-.373.603-.171.754.475.355 1.722-1.064 4.185 5.897 4.185 11.828 0 4.517-.469 5.746-3.578 9.378-1.968 2.299-4.192 4.18-4.943 4.18-.751 0-2.121 1.012-3.045 2.25-1.134 1.519-1.488 1.681-1.088.5.325-.963.155-1.75-.377-1.75-.533 0-.969 1.152-.969 2.559 0 1.432-.436 2.29-.989 1.948-.55-.34-.743.028-.435.831.348.906 1.364 1.242 2.739.904 1.266-.311 1.834-.16 1.352.36-.91.98-1.33 1.08-5.417 1.288-2.163.111-2.43.348-1.25 1.11 1.988 1.285.386 1.277-2.018-.009-1.368-.733-2.234-.637-3.155.349-1.046 1.12-1.501 1.129-2.577.052-2.139-2.138-3.778-.621-3.889 3.599-.082 3.128.315 4.089 1.893 4.59 1.197.38 2.34.09 2.856-.724.678-1.071.863-1.005.875.315.041 4.474 17.424 4.996 26.367.793 8.458-3.976 19.202-17.189 20.093-24.71.18-1.515.378-2.99.441-3.277.063-.287 2.179-2.762 4.704-5.5 5.282-5.729 11.61-15.944 13.925-22.478 4.489-12.671 5.625-29.04 2.865-41.303-1.859-8.262-2.989-10.823-4.682-10.61-2.75.345-3.698-.199-3.698-2.118 0-1.118-.675-2.291-1.5-2.607-.932-.358-1.5-1.882-1.5-4.028 0-2.192-.39-3.211-1.067-2.792-.587.362-1.313-.281-1.614-1.43-.301-1.149-.889-1.878-1.308-1.619-.418.259-.761-.697-.761-2.125 0-1.427-.536-2.927-1.191-3.332-.656-.405-1.334-1.591-1.508-2.636-.174-1.045-.853-1.776-1.508-1.625-.655.151-.929-.151-.608-.67.321-.52-.545-1.833-1.925-2.919-2.519-1.981-3.339-4.186-1.557-4.186 1.606 0 5.047-9.017 5.047-13.226 0-3.154-.64-4.569-3.106-6.873-5.067-4.733-13.144-3.37-17.434 2.943l-2.46 3.62-.136-3.482c-.088-2.234-.289-2.695-.562-1.287-.265 1.361-.949 1.994-1.801 1.667a1.475 1.475 0 0 1-.849-1.898c.29-.754-.189-2.392-1.063-3.64-1.585-2.263-1.589-2.26-1.589 1.145 0 3.216-.085 3.301-1.468 1.472-1.734-2.292-1.978-3.834-.458-2.895.59.365.482-.284-.241-1.441-.723-1.158-1.656-2.105-2.074-2.105-.417 0-.766-.788-.774-1.75-.012-1.367-.204-1.452-.878-.389-1.046 1.651-.234 5.336 1.007 4.569.487-.302.886-.071.886.511S143.64 46 143.2 46c-1.763 0-3.206-2.589-3.316-5.95-.064-1.953-.317-2.787-.563-1.855-.504 1.912-3.321 1.33-3.321-.687 0-1.752-4.071-4.274-7.55-4.676-2.067-.239-3.064-1.032-3.561-2.832l-.69-2.5-.099 2.75m-15.462 5.25c-.316.825-.139 1.5.393 1.5.533 0 .969-.675.969-1.5s-.177-1.5-.393-1.5c-.216 0-.652.675-.969 1.5m30.029 19.167c-1.417 1.416-.549 2.333 2.207 2.333 1.581 0 4.69.641 6.91 1.424 3.844 1.356 5.216 1.211 5.216-.552 0-.864-9.334-3.872-12.015-3.872-.908 0-1.952.3-2.318.667m-5.588 11.916c.048 1.165.285 1.402.604.605.289-.722.253-1.585-.079-1.917-.332-.332-.568.258-.525 1.312m-1.266 5.1c.721.289 1.584.253 1.916-.079.332-.332-.258-.568-1.312-.525-1.165.048-1.402.285-.604.604M119.158 103c0 1.375.227 1.938.504 1.25.278-.687.278-1.812 0-2.5-.277-.687-.504-.125-.504 1.25m79.349 4.5c.809 2.75 1.476 6.688 1.482 8.75.017 5.911 1.492 4.361 1.676-1.761.09-3.026-.182-5.287-.606-5.026-.423.262-.549-.747-.278-2.243s.138-2.389-.295-1.986c-.434.404-1.387-.046-2.12-1-1.038-1.353-1.007-.635.141 3.266m-39.58 20.221c-4.085 2.596-7.577 5.071-7.76 5.5-.734 1.714-2.054.623-2.386-1.971-.268-2.1-.471-1.708-.857 1.656-.565 4.913.703 6.74 6.629 9.552 1.805.857 4.444 2.939 5.865 4.627 1.42 1.687 2.582 2.557 2.582 1.933 0-.626.561-.813 1.25-.417.688.396.912.347.498-.11-1.033-1.138 2.166-4.491 4.286-4.491 2.384 0 4.311-4.963 3.131-8.066-.509-1.339-.941-2.787-.961-3.219-.065-1.457-3.699-9.707-4.277-9.711-.315-.002-3.915 2.12-8 4.717m42.345.279c0 2.475.195 3.488.434 2.25.238-1.238.238-3.263 0-4.5-.239-1.237-.434-.225-.434 2.25m-56.772 0c-.34.55-.141 1 .441 1s1.059-.45 1.059-1-.198-1-.441-1-.719.45-1.059 1m55.5 10.5c0 .825.375 1.5.833 1.5.459 0 .834-.675.834-1.5s-.375-1.5-.834-1.5c-.458 0-.833.675-.833 1.5m-.882 4.668c-.065.918-.419 2.454-.788 3.414-.498 1.297-.305 1.556.75 1.008.905-.471.847-.258-.16.586-.868.728-2.432 3.574-3.474 6.324-2.209 5.831-9.057 16.283-14.414 22-4.123 4.4-5.465 7.115-3.972 8.037.535.331.709 1.027.387 1.548-.322.521-.918.742-1.324.491-.407-.251-.844 1.316-.972 3.484-.256 4.344 1.376 5.316 2.77 1.649 1.168-3.074 3.713-5.064 5.566-4.352 1.66.637 2.028 3.692.625 5.193-.488.523-1.186 1.939-1.55 3.148-.531 1.757-.07 2.505 2.296 3.729 1.984 1.025 3.537 3.04 4.708 6.107 1.208 3.163 2.004 4.173 2.576 3.271.585-.922.832-.669.843.862.008 1.191.578 2.367 1.265 2.613.688.245.904.817.48 1.269-.423.453-1.984.396-3.469-.126-2.572-.905-3.555-2.241-6.476-8.812-1.497-3.366-3.238-3.539-3.393-.338-.208 4.265-.402 4.727-1.982 4.727-1.275 0-1.523-.926-1.25-4.673.32-4.395.172-4.718-2.475-5.431-2.1-.565-2.579-.458-1.886.423 2.301 2.926-.528 7.917-2.881 5.082-1.013-1.22-1.006-1.454.038-1.207.712.168 1.5-.256 1.752-.944.553-1.506-2.319-1.689-3.235-.206-.355.574.13 2.227 1.077 3.673 1.647 2.513 1.784 2.547 3.087.765 1.616-2.211 1.731-1.58.366 2.01-.663 1.743-.663 2.416 0 2.006.566-.349.997.517.997 2.002 0 1.491-.431 2.352-1 2-1.245-.77-1.319.763-.099 2.05.496.523 1.167 2.934 1.493 5.36.326 2.425.886 4.675 1.247 5 .36.324.418-.373.129-1.549-.289-1.177-.137-2.752.337-3.5.627-.99.867-.728.878.96.013 2.064.182 2.155 1.515.822 1.774-1.774 1.991-3.065.345-2.048-.721.447-.882.274-.429-.459.517-.837 1.613-.539 3.835 1.043 1.71 1.218 2.839 1.776 2.508 1.24-.332-.536.22-2.065 1.225-3.398 1.482-1.965 2.103-2.194 3.285-1.213 1.218 1.012 1.413.798 1.183-1.299-.152-1.38.134-2.509.636-2.509s.912.955.912 2.122c0 1.774.247 1.918 1.5.878.825-.685 1.5-2.341 1.5-3.681 0-1.659.399-2.212 1.25-1.731 1 .564 1 .436 0-.641-1.455-1.568-1.721-8.356-.294-7.474.526.325.703 1.252.393 2.059-.789 2.058.41 4.735 1.751 3.906.782-.483.71-.948-.243-1.563-1.14-.735-1.136-1.017.021-1.763.758-.489 1.069-1.389.691-2-.378-.612-.21-1.112.372-1.112s1.052-.787 1.044-1.75c-.013-1.496-.157-1.532-.985-.25-.755 1.169-.973.893-.985-1.25-.008-1.512.462-2.75 1.044-2.75.582 0 .781.45.441 1s-.144 1 .435 1c1.416 0 .741-3.964-.843-4.943-.961-.594-.884-.923.324-1.386 1.011-.388 1.572-1.796 1.552-3.89-.028-2.942-.169-3.1-1.36-1.531-1.86 2.45-3.786 2.18-3.569-.5.339-4.186-.022-4.75-3.039-4.75-2.703 0-3-.314-3-3.171 0-1.744.699-3.944 1.553-4.888 2.11-2.331 5.685-11.941 4.443-11.941-1.795 0-1.042-1.85 1.019-2.505 1.108-.351 1.751-1.064 1.43-1.583-.321-.52-1.072-.643-1.669-.274-.653.404-.797.205-.361-.5.398-.644 1.119-.926 1.604-.627 1.488.921 2.256-6.226 1.209-11.253-.545-2.617-1.045-4.007-1.11-3.09M197 153.059c0 .582.45.781 1 .441s1-.816 1-1.059-.45-.441-1-.441-1 .477-1 1.059M92.103 160c-.101 2.652-.369 3.136-1.103 2-.533-.825-.983-1.05-1-.5-.017.55-.467.325-1-.5-.802-1.241-.967-1.155-.958.5.007 1.1 1.391 3.575 3.076 5.5 2.083 2.38 2.874 2.86 2.47 1.5-.569-1.921-.536-1.927.843-.15 1.537 1.98 3.569 1.462 3.569-.909 0-.793.48-1.441 1.067-1.441s.823.787.523 1.75c-.299.963-.096 2.425.453 3.25.712 1.071.92-.044.727-3.897-.21-4.19-.717-5.644-2.27-6.5-1.1-.607-2.275-1.479-2.611-1.938-.336-.459-.948.216-1.359 1.5-.727 2.272-.768 2.255-1.52-.665l-.773-3-.134 3.5m9.912 6.75c-.008 1.787.158 3.25.368 3.25.91 0 1.296-3.898.51-5.139-.586-.925-.867-.321-.878 1.889m93.735 8.736c-.963 1.315-1.75 2.816-1.75 3.336 0 1.126 4.819 2.185 6.687 1.468 1.698-.652 1.703-2.29.006-2.29-.719 0-1.731-1.103-2.25-2.452l-.943-2.451-1.75 2.389m.583 1.971c0 .801.549 1.668 1.22 1.925.791.303 1.043-.21.717-1.457-.59-2.256-1.937-2.581-1.937-.468m4.21 4.474c-.317.512-.118 1.213.441 1.559.559.345 1.016-.074 1.016-.931 0-1.757-.6-2.015-1.457-.628M130.4 193.5c0 1.375.38 2.5.844 2.5.464 0 .711-.741.55-1.646-.162-.906.337-1.866 1.108-2.134 1.013-.353 1.247.104.843 1.646-.769 2.943.682 2.687 2.073-.366 1.089-2.39.995-2.5-2.139-2.5-2.831 0-3.279.342-3.279 2.5m14.413 2.183c.721.289 1.584.253 1.916-.079.332-.332-.258-.568-1.312-.525-1.165.048-1.402.285-.604.604M196 199.5c0 .825.177 1.5.393 1.5.216 0 .652-.675.969-1.5.316-.825.139-1.5-.393-1.5-.533 0-.969.675-.969 1.5m-76.189 2.351c-.45 1.565-1.117 2.102-1.994 1.609-.724-.408-.54.082.409 1.09 2.136 2.266 3.027 1.508 2.592-2.209-.319-2.737-.356-2.755-1.007-.49m49.912 12.899c-.871 1.656-.144 6.61 1.027 7 1.423.474 1.726-2.338.344-3.192-.498-.308-.671-1.46-.383-2.559.503-1.927-.178-2.789-.988-1.249" fill="#1976D2" fill-rule="evenodd"/></svg>